<?xml version="1.0" encoding="UTF-8"?>
<svg id="Capa_2" xmlns="http://www.w3.org/2000/svg" viewBox="0 0 98.462 116.839">
  <defs>
    <style>
      .cls-1 {
        fill: #eaeaea;
      }

      .cls-2 {
        font-family: Inter-SemiBold, Inter;
        font-size: 12.308px;
        font-variation-settings: 'opsz' 14, 'wght' 600;
        font-weight: 600;
      }

      .cls-3 {
        letter-spacing: 0em;
      }

      .cls-4 {
        fill: #fff;
      }

      .cls-5 {
        letter-spacing: .01em;
      }
    </style>
  </defs>
  <g id="Capa_1-2" data-name="Capa_1">
    <g>
      <rect class="cls-4" x="11.343" y="11.47" width="75.775" height="74.544" rx="3.5" ry="3.5"/>
      <g>
        <path class="cls-4" d="M91.515.223H6.947C3.233.223.223,3.233.223,6.947v102.946c0,3.714,3.01,6.724,6.724,6.724h84.568c3.714,0,6.724-3.01,6.724-6.724V6.947c0-3.713-3.01-6.724-6.724-6.724ZM87.341,82.514c0,2.056-1.667,3.723-3.723,3.723H14.843c-2.056,0-3.723-1.667-3.723-3.723V14.97c0-2.056,1.667-3.723,3.723-3.723h68.775c2.056,0,3.723,1.667,3.723,3.723v67.544Z"/>
        <g>
          <path class="cls-1" d="M60.655,113.118h5.591c10.921-3.018,20.703-8.864,28.528-16.715v-1.803c-9.027,9.423-20.86,16.066-34.119,18.518Z"/>
          <path class="cls-1" d="M49.231,92.373c-7.936,0-15.366-2.243-21.706-6.136h-1.552c6.704,4.407,14.691,6.969,23.257,6.969s16.554-2.563,23.257-6.969h-1.552c-6.34,3.893-13.769,6.136-21.706,6.136Z"/>
          <path class="cls-1" d="M49.231,111.439c-18.107,0-34.389-8.068-45.543-20.842v1.811c11.343,12.436,27.56,20.237,45.543,20.237s34.201-7.801,45.543-20.237v-1.811c-11.155,12.774-27.436,20.842-45.543,20.842Z"/>
          <path class="cls-1" d="M3.687,94.6v1.803c7.824,7.851,17.606,13.697,28.528,16.715h5.591c-13.259-2.452-25.093-9.094-34.119-18.518Z"/>
          <path class="cls-1" d="M11.121,78.304c-3.306-4.525-5.849-9.655-7.433-15.195v3.087c1.755,4.976,4.282,9.583,7.433,13.672v-1.564Z"/>
          <path class="cls-1" d="M29.308,11.247h1.831c5.483-2.662,11.618-4.155,18.092-4.155s12.609,1.493,18.091,4.155h1.831c-5.956-3.183-12.735-4.988-19.922-4.988s-13.966,1.805-19.922,4.988Z"/>
          <path class="cls-1" d="M22.71,86.237h-1.451c7.73,6.104,17.439,9.746,27.973,9.746s20.243-3.642,27.972-9.746h-1.451c-7.426,5.565-16.601,8.859-26.521,8.859s-19.095-3.295-26.521-8.859Z"/>
          <path class="cls-1" d="M91.271,49.732c0,6.424-1.411,12.52-3.93,17.989v1.913c3.043-5.967,4.764-12.734,4.764-19.902s-1.721-13.935-4.764-19.902v1.913c2.52,5.469,3.93,11.565,3.93,17.989Z"/>
          <path class="cls-1" d="M11.121,62.5v-2.789c-.812-3.19-1.245-6.534-1.245-9.978s.432-6.788,1.245-9.978v-2.789c-1.312,4.017-2.025,8.309-2.025,12.767s.713,8.75,2.025,12.767Z"/>
          <path class="cls-1" d="M11.121,15.27c-2.918,3.314-5.424,7.009-7.433,11.003v2.305c1.94-4.281,4.452-8.24,7.433-11.783v-1.525Z"/>
          <path class="cls-1" d="M49.231,89.649c-5.66,0-11.044-1.22-15.912-3.412h-1.816c5.349,2.682,11.367,4.192,17.727,4.192s12.378-1.51,17.727-4.192h-1.815c-4.868,2.192-10.252,3.412-15.912,3.412Z"/>
          <path class="cls-1" d="M88.586,49.732c0,3.444-.432,6.788-1.245,9.978v2.789c1.312-4.017,2.025-8.309,2.025-12.767s-.713-8.75-2.025-12.767v2.789c.812,3.19,1.245,6.534,1.245,9.978Z"/>
          <path class="cls-1" d="M59.362,86.237h-3.104c-2.275.45-4.624.688-7.027.688s-4.752-.238-7.027-.688h-3.104c3.223.921,6.622,1.415,10.131,1.415s6.908-.494,10.131-1.415Z"/>
          <path class="cls-1" d="M12.889,3.722h-1.8c-2.68,2.287-5.158,4.809-7.402,7.536v1.84c2.713-3.463,5.802-6.608,9.202-9.377Z"/>
          <path class="cls-1" d="M94.609,8.679c-.534-2.336-2.348-4.179-4.666-4.759,1.639,1.5,3.196,3.089,4.666,4.759Z"/>
          <path class="cls-1" d="M11.121,19.601c-3.15,4.089-5.679,8.693-7.433,13.668v3.088c1.584-5.539,4.129-10.666,7.433-15.189v-1.567Z"/>
          <path class="cls-1" d="M11.121,73.451c-4.193-6.906-6.616-15.03-6.616-23.719s2.423-16.813,6.616-23.719v-1.663c-4.318,6.644-6.992,14.479-7.433,22.905v4.949c.44,8.427,3.115,16.263,7.433,22.909v-1.662Z"/>
          <path class="cls-1" d="M18.403,86.237h-1.411c8.561,7.783,19.863,12.523,32.239,12.523s23.678-4.741,32.239-12.523h-1.411c-8.295,7.217-19.067,11.583-30.827,11.583s-22.533-4.366-30.827-11.583Z"/>
          <path class="cls-1" d="M7.19,49.732c0-6.424,1.411-12.52,3.93-17.989v-1.913c-3.043,5.967-4.764,12.734-4.764,19.902s1.721,13.935,4.764,19.902v-1.913c-2.52-5.469-3.93-11.565-3.93-17.989Z"/>
          <path class="cls-1" d="M3.687,100.235c5.831,5.411,12.6,9.798,20.027,12.883h3.649c-8.912-3.172-16.96-8.223-23.676-14.687v1.804Z"/>
          <path class="cls-1" d="M49.231,9.816c3.617,0,7.121.5,10.45,1.431h2.603c-4.094-1.432-8.485-2.211-13.053-2.211s-8.959.78-13.053,2.211h2.603c3.329-.931,6.833-1.431,10.45-1.431Z"/>
          <path class="cls-1" d="M22.277,3.722h-1.975C13.612,8.062,7.929,13.86,3.687,20.671v2.032C8.206,14.9,14.617,8.356,22.277,3.722Z"/>
          <path class="cls-1" d="M78.159,3.722h-1.975c7.66,4.634,14.071,11.178,18.59,18.98v-2.032c-4.242-6.81-9.925-12.609-16.615-16.949Z"/>
          <path class="cls-1" d="M79.146,11.247c-3.953-3.167-8.402-5.725-13.21-7.525h-2.918c5.323,1.644,10.25,4.215,14.602,7.525h1.527Z"/>
          <path class="cls-1" d="M87.341,16.795c2.981,3.542,5.493,7.502,7.433,11.783v-2.305c-2.009-3.994-4.515-7.689-7.433-11.003v1.525Z"/>
          <path class="cls-1" d="M83.393,11.247c-3.224-2.945-6.817-5.481-10.701-7.525h-2.22c4.151,1.979,7.99,4.521,11.426,7.525h1.495Z"/>
          <path class="cls-1" d="M87.341,26.014c4.193,6.906,6.616,15.03,6.616,23.718s-2.423,16.813-6.616,23.719v1.662c4.319-6.646,6.993-14.482,7.433-22.909v-4.947c-.441-8.426-3.115-16.261-7.433-22.906v1.663Z"/>
          <path class="cls-1" d="M93.991,109.799c-1.469,1.129-2.979,2.205-4.529,3.222,1.955-.331,3.609-1.544,4.529-3.222Z"/>
          <path class="cls-1" d="M87.341,21.169c3.305,4.524,5.85,9.65,7.433,15.19v-3.088c-1.754-4.975-4.283-9.58-7.433-13.668v1.567Z"/>
          <path class="cls-1" d="M86.895,113.118c2.727-1.672,5.336-3.522,7.815-5.53.037-.28.064-.563.064-.853v-1.032c-3.32,2.784-6.893,5.266-10.675,7.415h2.796Z"/>
          <path class="cls-1" d="M17.349,3.722h-1.857c-4.495,3.398-8.476,7.456-11.804,12.032v1.905c3.717-5.414,8.346-10.136,13.662-13.936Z"/>
          <path class="cls-1" d="M8.519,3.92c-2.318.58-4.132,2.423-4.666,4.759,1.47-1.67,3.027-3.259,4.666-4.759Z"/>
          <path class="cls-1" d="M82.97,3.722h-1.857c5.315,3.8,9.944,8.523,13.662,13.936v-1.905c-3.329-4.575-7.309-8.634-11.804-12.031Z"/>
          <path class="cls-1" d="M25.58,11.247c6.866-4.356,14.973-6.879,23.651-6.879s16.785,2.523,23.651,6.879h1.617c-6.028-4.083-13.065-6.748-20.644-7.525h-9.246c-7.579.777-14.616,3.443-20.644,7.525h1.617Z"/>
          <path class="cls-1" d="M20.843,11.247c4.352-3.31,9.279-5.881,14.602-7.525h-2.918c-4.809,1.801-9.257,4.358-13.211,7.525h1.527Z"/>
          <path class="cls-1" d="M16.564,11.247c3.436-3.004,7.276-5.546,11.426-7.525h-2.22c-3.884,2.045-7.478,4.58-10.702,7.525h1.495Z"/>
          <path class="cls-1" d="M3.687,103.936c4.114,3.56,8.635,6.65,13.484,9.182h3.077c-6.046-2.855-11.618-6.574-16.562-11.001v1.819Z"/>
          <path class="cls-1" d="M49.231,103.268c-19.389,0-36.367-10.661-45.543-26.505v2.032c9.543,15.321,26.389,25.52,45.543,25.52s36-10.199,45.543-25.52v-2.032c-9.176,15.844-26.154,26.505-45.543,26.505Z"/>
          <path class="cls-1" d="M87.372,3.722h-1.8c3.4,2.768,6.489,5.914,9.202,9.377v-1.84c-2.244-2.727-4.723-5.249-7.402-7.536Z"/>
          <path class="cls-1" d="M74.748,113.118c7.426-3.085,14.195-7.472,20.026-12.883v-1.804c-6.715,6.464-14.763,11.515-23.675,14.687h3.649Z"/>
          <path class="cls-1" d="M84.072,86.207c-9.022,8.87-21.313,14.337-34.841,14.337s-25.819-5.468-34.841-14.337c-1.787-.217-3.179-1.699-3.261-3.524-2.985-3.546-5.499-7.511-7.442-11.796v2.304c8.455,16.808,25.694,28.346,45.543,28.346s37.089-11.538,45.543-28.346v-2.304c-1.943,4.285-4.457,8.25-7.442,11.796-.082,1.825-1.474,3.306-3.261,3.523Z"/>
          <path class="cls-1" d="M49.231,108.716c-18.429,0-34.881-8.742-45.543-22.349v1.84c10.888,13.229,27.262,21.662,45.543,21.662s34.656-8.433,45.543-21.662v-1.84c-10.662,13.608-27.114,22.349-45.543,22.349Z"/>
          <path class="cls-1" d="M3.687,106.735c0,.29.026.573.064.853,2.479,2.008,5.089,3.858,7.815,5.53h2.796c-3.782-2.149-7.355-4.631-10.675-7.415v1.032Z"/>
          <path class="cls-1" d="M9,113.021c-1.551-1.018-3.061-2.094-4.529-3.222.92,1.678,2.574,2.892,4.529,3.222Z"/>
          <path class="cls-1" d="M49.231,105.992c-18.841,0-35.514-9.579-45.543-24.185v1.905c10.31,14.17,26.885,23.38,45.543,23.38s35.234-9.21,45.543-23.38v-1.905c-10.03,14.606-26.703,24.185-45.543,24.185Z"/>
          <path class="cls-1" d="M87.341,79.868c3.151-4.089,5.678-8.696,7.433-13.672v-3.087c-1.584,5.54-4.127,10.671-7.433,15.196v1.564Z"/>
          <path class="cls-1" d="M81.29,113.118c4.849-2.532,9.37-5.622,13.484-9.181v-1.819c-4.943,4.427-10.515,8.145-16.562,11.001h3.077Z"/>
        </g>
        <path class="cls-1" d="M91.515,116.839H6.947c-3.83,0-6.947-3.116-6.947-6.947V6.947C0,3.116,3.116,0,6.947,0h84.568c3.83,0,6.947,3.116,6.947,6.947v102.946c0,3.83-3.116,6.947-6.947,6.947ZM6.947.446C3.362.446.446,3.362.446,6.947v102.946c0,3.585,2.916,6.501,6.501,6.501h84.568c3.585,0,6.501-2.916,6.501-6.501V6.947c0-3.585-2.916-6.501-6.501-6.501H6.947Z"/>
        <path class="cls-1" d="M83.618,86.46H14.843c-2.176,0-3.945-1.77-3.945-3.945V14.97c0-2.176,1.77-3.945,3.945-3.945h68.775c2.176,0,3.945,1.77,3.945,3.945v67.544c0,2.176-1.77,3.945-3.945,3.945ZM14.843,11.47c-1.93,0-3.5,1.57-3.5,3.5v67.544c0,1.93,1.57,3.5,3.5,3.5h68.775c1.93,0,3.5-1.57,3.5-3.5V14.97c0-1.93-1.57-3.5-3.5-3.5H14.843Z"/>
        <text id="qr-frame-text" class="cls-2" transform="translate(21.632 103.649)"><tspan x="0" y="0">S</tspan><tspan class="cls-5" x="8.005" y="0">c</tspan><tspan class="cls-3" x="15.295" y="0">an Me!</tspan></text>
      </g>
      <g>
        <path d="M38.554,16.993h-21.089v21.089h21.089v-21.089ZM33.586,33.114h-11.153v-11.186h11.153v11.186Z"/>
        <path d="M30.494,25.054h-4.968v4.968h4.968v-4.968Z"/>
        <path d="M80.931,16.993h-21.089v21.089h21.089v-21.089ZM76.028,33.114h-11.186v-11.186h11.186v11.186Z"/>
        <path d="M72.903,25.054h-4.968v4.968h4.968v-4.968Z"/>
        <path d="M38.554,59.402h-21.089v21.089h21.089v-21.089ZM33.586,75.523h-11.153v-11.153h11.153v11.153Z"/>
        <path d="M30.494,67.463h-4.968v4.968h4.968v-4.968Z"/>
        <path d="M27.401,41.405h-4.968v4.968h4.968v-4.968Z"/>
        <path d="M32.238,51.341v4.935h4.935v-4.935h-4.869v-4.968h-4.935v4.968h4.869Z"/>
        <path d="M57.176,26.534h-4.968v4.968h4.968v-4.968Z"/>
        <path d="M47.24,21.928h-4.968v9.541h4.968v-9.541Z"/>
        <path d="M52.208,16.993h-4.968v4.968h4.968v-4.968Z"/>
        <path d="M52.208,31.502h-4.968v4.935h-4.968v4.968h9.936v-9.903Z"/>
        <path d="M47.24,56.276v4.869h4.968v4.836h9.903v-4.968h-9.903v-4.803h-4.968v-9.837h-4.968v9.903h4.968Z"/>
        <path d="M57.176,41.405h-4.968v9.936h4.968v-9.936Z"/>
        <path d="M67.079,56.211h13.884v-9.936h-4.935v-4.836h-9.048v4.968h-4.836v4.968h4.968v4.836h-.033ZM67.079,46.373h8.949v4.836h-8.916l-.033-4.836Z"/>
        <path d="M80.996,61.014h-4.968v9.936h4.968v-9.936Z"/>
        <path d="M62.111,51.341h-4.968v4.968h4.968v-4.968Z"/>
        <path d="M67.079,65.982h-4.968v4.968h4.968v-4.968Z"/>
        <path d="M72.047,61.014h-4.968v4.968h4.968v-4.968Z"/>
        <path d="M72.047,80.491v-4.639h3.981v-4.935h-8.949v9.574h4.968Z"/>
        <path d="M47.24,61.146h-4.968v9.442h4.968v-9.442Z"/>
        <path d="M52.208,80.491v-4.968h4.836v4.968h4.968v-4.968h-4.869v-4.968h-9.903v9.936h4.968Z"/>
        <path d="M42.239,41.405h-9.936v4.968h9.936v-4.968Z"/>
      </g>
    </g>
  </g>
</svg>