<?xml version="1.0" encoding="UTF-8"?>
<svg id="Capa_2" xmlns="http://www.w3.org/2000/svg" viewBox="0 0 330 402.188">
  <defs>
    <style>
      .cls-15 {
        fill: #fff;
        font-family: Inter-SemiBold, Inter;
        font-size: 30px;
        font-variation-settings: 'opsz' 14, 'wght' 600;
        font-weight: 600;
      }

      .cls-2 {
        letter-spacing: .01em;
      }
    </style>
  </defs>
  <g id="Capa_1-2" data-name="Capa_1">
    <g>
      <path fill='currentColor' d="M314.531,0H15.469C6.926,0,0,6.926,0,15.469v297.889c9.191,0,16.642,7.451,16.642,16.642s-7.451,16.642-16.642,16.642v40.077c0,8.543,6.926,15.469,15.469,15.469h299.062c8.543,0,15.469-6.926,15.469-15.469v-40.077c-9.191,0-16.642-7.451-16.642-16.642s7.451-16.642,16.642-16.642V15.469c0-8.543-6.926-15.469-15.469-15.469ZM41.25,50.752c0-6.387,5.178-11.564,11.564-11.564h224.371c6.387,0,11.564,5.178,11.564,11.564v224.371c0,6.387-5.177,11.564-11.564,11.564H52.814c-6.387,0-11.564-5.177-11.564-11.564V50.752ZM28.344,331.547h-6.188c-.854,0-1.547-.693-1.547-1.547s.692-1.547,1.547-1.547h6.188c.854,0,1.547.693,1.547,1.547s-.692,1.547-1.547,1.547ZM52.184,331.547h-11.92c-.854,0-1.547-.693-1.547-1.547s.692-1.547,1.547-1.547h11.92c.854,0,1.547.693,1.547,1.547s-.692,1.547-1.547,1.547ZM76.024,331.547h-11.92c-.854,0-1.547-.693-1.547-1.547s.692-1.547,1.547-1.547h11.92c.854,0,1.547.693,1.547,1.547s-.692,1.547-1.547,1.547ZM99.864,331.547h-11.92c-.854,0-1.547-.693-1.547-1.547s.692-1.547,1.547-1.547h11.92c.854,0,1.547.693,1.547,1.547s-.692,1.547-1.547,1.547ZM123.703,331.547h-11.92c-.854,0-1.547-.693-1.547-1.547s.692-1.547,1.547-1.547h11.92c.854,0,1.547.693,1.547,1.547s-.692,1.547-1.547,1.547ZM147.543,331.547h-11.92c-.854,0-1.547-.693-1.547-1.547s.692-1.547,1.547-1.547h11.92c.854,0,1.547.693,1.547,1.547s-.692,1.547-1.547,1.547ZM171.383,331.547h-11.92c-.854,0-1.547-.693-1.547-1.547s.692-1.547,1.547-1.547h11.92c.854,0,1.547.693,1.547,1.547s-.692,1.547-1.547,1.547ZM195.223,331.547h-11.92c-.855,0-1.547-.693-1.547-1.547s.692-1.547,1.547-1.547h11.92c.854,0,1.547.693,1.547,1.547s-.692,1.547-1.547,1.547ZM219.063,331.547h-11.92c-.855,0-1.547-.693-1.547-1.547s.692-1.547,1.547-1.547h11.92c.854,0,1.547.693,1.547,1.547s-.692,1.547-1.547,1.547ZM242.902,331.547h-11.92c-.855,0-1.547-.693-1.547-1.547s.692-1.547,1.547-1.547h11.92c.854,0,1.547.693,1.547,1.547s-.692,1.547-1.547,1.547ZM266.742,331.547h-11.92c-.855,0-1.547-.693-1.547-1.547s.692-1.547,1.547-1.547h11.92c.854,0,1.547.693,1.547,1.547s-.692,1.547-1.547,1.547ZM290.582,331.547h-11.92c-.855,0-1.547-.693-1.547-1.547s.692-1.547,1.547-1.547h11.92c.855,0,1.547.693,1.547,1.547s-.692,1.547-1.547,1.547ZM308.69,331.547h-6.188c-.855,0-1.547-.693-1.547-1.547s.692-1.547,1.547-1.547h6.188c.854,0,1.547.693,1.547,1.547s-.692,1.547-1.547,1.547Z"/>
      <text id="qr-frame-text" class="frame_15_text" x='97' y='377'>Scan Me!</text>
    </g>
  </g>
</svg>