<svg width="418" height="320" viewBox="0 0 418 320" fill="none" xmlns="http://www.w3.org/2000/svg">
<g clip-path="url(#clip0_57_8164)">
<path d="M215.587 42C226.798 42 235.887 51.0885 235.888 62.2998V257.587C235.888 268.798 226.798 277.887 215.587 277.887H20.2998C9.08851 277.887 1.39876e-05 268.798 1.39876e-05 257.587V62.2998C0.000232513 51.0886 9.08864 42.0002 20.2998 42H215.587ZM24.1465 55.002C17.9918 55.002 13.0022 59.9909 13.002 66.1455V253.741C13.002 259.896 17.9917 264.886 24.1465 264.886H211.741C217.896 264.886 222.886 259.896 222.886 253.741V66.0742C222.886 59.9592 217.929 55.0022 211.813 55.002H24.1465Z" fill="currentColor"/>
<path d="M235.298 77.064H403.236C411.39 77.064 418 83.674 418 91.8278V145.461C418 153.615 411.39 160.225 403.236 160.225H235.298V77.064Z" fill="currentColor"/>
<path d="M267.278 152.435C261.312 152.435 257.004 150.949 254.355 147.978C251.73 145.007 250.418 140.278 250.418 133.792V127.404H263.342V135.574C263.342 137.084 263.565 138.273 264.01 139.139C264.481 139.981 265.285 140.402 266.424 140.402C267.613 140.402 268.43 140.055 268.875 139.362C269.346 138.669 269.581 137.53 269.581 135.946C269.581 133.94 269.383 132.269 268.987 130.932C268.591 129.57 267.897 128.283 266.907 127.07C265.942 125.832 264.592 124.396 262.859 122.762L256.991 117.191C252.609 113.056 250.418 108.328 250.418 103.004C250.418 97.4338 251.705 93.1878 254.28 90.2663C256.88 87.3448 260.631 85.8841 265.533 85.8841C271.525 85.8841 275.771 87.481 278.271 90.6748C280.797 93.8686 282.059 98.7213 282.059 105.233H268.764V100.739C268.764 99.8478 268.504 99.1546 267.984 98.6594C267.489 98.1642 266.808 97.9166 265.942 97.9166C264.902 97.9166 264.134 98.2137 263.639 98.8079C263.169 99.3774 262.933 100.12 262.933 101.036C262.933 101.952 263.181 102.943 263.676 104.007C264.171 105.072 265.149 106.297 266.61 107.684L274.149 114.926C275.659 116.362 277.046 117.884 278.308 119.494C279.571 121.078 280.586 122.935 281.354 125.064C282.121 127.169 282.505 129.744 282.505 132.789C282.505 138.929 281.366 143.744 279.088 147.235C276.835 150.702 272.899 152.435 267.278 152.435Z" fill="white"/>
<path d="M305.156 152.435C300.427 152.435 296.614 150.962 293.717 148.015C290.846 145.069 289.41 140.947 289.41 135.648V105.493C289.41 99.1546 290.66 94.3019 293.16 90.9348C295.686 87.5676 299.783 85.8841 305.453 85.8841C308.548 85.8841 311.296 86.4535 313.698 87.5924C316.124 88.7313 318.03 90.4396 319.417 92.7174C320.803 94.9704 321.496 97.8176 321.496 101.259V112.549H308.498V102.893C308.498 100.937 308.251 99.625 307.756 98.9565C307.26 98.2633 306.493 97.9166 305.453 97.9166C304.24 97.9166 303.423 98.3623 303.002 99.2536C302.581 100.12 302.371 101.284 302.371 102.745V135.463C302.371 137.27 302.631 138.545 303.15 139.288C303.695 140.031 304.463 140.402 305.453 140.402C306.567 140.402 307.347 139.944 307.793 139.028C308.263 138.112 308.498 136.924 308.498 135.463V123.69H321.645V136.057C321.645 141.801 320.197 145.973 317.3 148.572C314.403 151.147 310.355 152.435 305.156 152.435Z" fill="white"/>
<path d="M327.287 151.84L333.6 86.4783H355.772L361.974 151.84H349.607L348.678 141.293H340.805L339.988 151.84H327.287ZM341.733 130.858H347.676L344.816 97.6195H344.222L341.733 130.858Z" fill="white"/>
<path d="M369.027 151.84V86.4783H382.471L388.487 117.785V86.4783H401.114V151.84H388.338L381.802 119.159V151.84H369.027Z" fill="white"/>
<path d="M235.298 160.225H338.975C347.129 160.225 353.739 166.835 353.739 174.989V228.622C353.739 236.776 347.129 243.386 338.975 243.386H235.298V160.225Z" fill="currentColor"/>
<path d="M250.418 235.352V169.99H270.324L275.82 209.839L281.279 169.99H301.371V235.352H289.413V188.262L281.911 235.352H270.175L262.228 188.262V235.352H250.418Z" fill="white"/>
<path d="M310.207 235.352V169.99H336.352V182.617H323.502V195.355H335.832V207.648H323.502V222.614H337.206V235.352H310.207Z" fill="white"/>
</g>
<defs>
<clipPath id="clip0_57_8164">
<rect width="320" height="418" fill="white" transform="translate(418 1.82714e-05) rotate(90)"/>
</clipPath>
</defs>
</svg>
