<svg width="320" height="418" viewBox="0 0 320 418" fill="currentColor" xmlns="http://www.w3.org/2000/svg">
<path d="M287.251 413.39V418H32.5882V413.39H287.251ZM307.229 393.412V134.456C289.821 133.029 276.076 118.668 275.628 100.999L275.616 100.109C275.617 82.0348 289.53 67.2112 307.229 65.7597V24.5882C307.229 13.5547 298.285 4.61029 287.251 4.61029H32.5882C21.5547 4.61029 12.6103 13.5547 12.6103 24.5882V65.7597C30.0191 67.1871 43.7634 81.5501 44.2115 99.2189L44.2235 100.109C44.2234 118.183 30.3105 133.005 12.6103 134.456V393.412C12.6103 404.445 21.5547 413.39 32.5882 413.39V418C19.0085 418 8 406.991 8 393.412V129.914C8.58103 129.947 9.16639 129.966 9.75587 129.966C26.2453 129.966 39.6131 116.598 39.6132 100.109C39.6129 83.6195 26.2452 70.2516 9.75587 70.2515C9.16642 70.2515 8.58101 70.2703 8 70.304V24.5882C8 11.0085 19.0085 0 32.5882 0H287.251C300.831 0 311.84 11.0085 311.84 24.5882V70.304C311.259 70.2703 310.673 70.2515 310.084 70.2515C293.595 70.2518 280.227 83.6197 280.226 100.109C280.227 116.598 293.595 129.966 310.084 129.966C310.673 129.966 311.259 129.947 311.84 129.914V393.412C311.84 406.991 300.831 418 287.251 418V413.39C298.285 413.39 307.229 404.445 307.229 393.412Z" fill="currentColor"/>
<path d="M55.9275 95.2793V99.8896H52.5664V95.2793H55.9275ZM69.3746 95.2793V99.8896H62.651V95.2793H69.3746ZM82.8218 95.2793V99.8896H76.0982V95.2793H82.8218ZM96.2689 95.2793V99.8896H89.5453V95.2793H96.2689ZM109.715 95.2793V99.8896H102.991V95.2793H109.715ZM123.162 95.2793V99.8896H116.438V95.2793H123.162ZM136.609 95.2793V99.8896H129.885V95.2793H136.609ZM150.055 95.2793V99.8896H143.332V95.2793H150.055ZM163.502 95.2793V99.8896H156.778V95.2793H163.502ZM176.949 95.2793V99.8896H170.225V95.2793H176.949ZM190.396 95.2793V99.8896H183.672V95.2793H190.396ZM203.842 95.2793V99.8896H197.118V95.2793H203.842ZM217.289 95.2793V99.8896H210.565V95.2793H217.289ZM230.736 95.2793V99.8896H224.012V95.2793H230.736ZM244.182 95.2793V99.8896H237.46V95.2793H244.182ZM257.629 95.2793V99.8896H250.905V95.2793H257.629ZM267.713 95.2793V99.8896H264.352V95.2793H267.713Z" fill="currentColor"/>
<text id="qr-frame-text" x="160" y="60" font-size="40px" font-weight="600" font-family="Inter, sans-serif" fill="black" text-anchor="middle">Scan Me!</text>
</svg>
