<svg width="320" height="418" viewBox="0 0 320 418" fill="currentColor" xmlns="http://www.w3.org/2000/svg">
<rect x="13.1616" y="339.686" width="293.677" height="78.3138" rx="11.677" fill="currentColor"/>
<text id="qr-frame-text" x="160" y="395" font-size="40px" font-weight="600" font-family="Inter, sans-serif" fill="white" text-anchor="middle">Scan Me!</text>
<path d="M285.302 0C297.196 0.000147454 306.838 9.64213 306.838 21.5361V272.141C306.838 284.035 297.196 293.677 285.302 293.677H226.079L159.962 331.115L93.8472 293.677H34.6978C22.8037 293.677 13.1616 284.035 13.1616 272.141V21.5361C13.1617 9.64211 22.8037 9.09441e-05 34.6978 0H285.302ZM42.5298 17.6211C36.0422 17.6211 30.783 22.8797 30.7827 29.3672V264.31C30.7829 270.797 36.0414 276.056 42.5288 276.057H277.47C283.958 276.057 289.217 270.797 289.217 264.31V29.3682C289.217 22.8804 283.958 17.6211 277.47 17.6211H42.5298Z" fill="currentColor"/>
</svg>
