<?xml version="1.0" encoding="UTF-8"?>
<svg id="Capa_2" xmlns="http://www.w3.org/2000/svg" viewBox="0 0 330 391.875">
  <defs>
    <style>
      .cls-2 {
        fill: #fff;
        font-family: Inter-SemiBold, Inter;
        font-size: 40px;
        font-variation-settings: 'opsz' 14, 'wght' 600;
        font-weight: 600;
      }

      .cls-3 {
        letter-spacing: .01em;
      }
    </style>
  </defs>
  <g id="Capa_1-2" data-name="Capa_1">
    <g>
      <path id="qr-frame-secondary-color" fill='currentColor' class="cls-1" d="M252.758,0H77.242C34.583,0,0,34.583,0,77.242v237.391c0,42.66,34.583,77.242,77.242,77.242h175.516c42.66,0,77.242-34.583,77.242-77.242V77.242C330,34.583,295.417,0,252.758,0ZM288.75,257.681c0,17.086-13.851,30.938-30.938,30.938H72.188c-17.086,0-30.938-13.851-30.938-30.938V72.056c0-17.086,13.851-30.938,30.938-30.938h185.625c17.086,0,30.938,13.851,30.938,30.938v185.625Z"/>
      <path fill='currentColor' d="M251.875,10.285H78.125C40.673,10.285,10.312,40.646,10.312,78.098v235.679c0,37.452,30.361,67.813,67.813,67.813h173.75c37.452,0,67.813-30.361,67.813-67.813V78.098c0-37.452-30.361-67.813-67.813-67.813ZM288.75,257.681c0,17.086-13.851,30.938-30.938,30.938H72.188c-17.086,0-30.938-13.851-30.938-30.938V72.056c0-17.086,13.851-30.938,30.938-30.938h185.625c17.086,0,30.938,13.851,30.938,30.938v185.625Z"/>
      <text id="qr-frame-text" class="cls-2" transform="translate(75.327 346.762)"><tspan x="0" y="0">S</tspan><tspan class="cls-3" x="26.016" y="0">c</tspan><tspan x="49.707" y="0">an Me!</tspan></text>
    </g>
  </g>
</svg>