<?xml version="1.0" encoding="UTF-8"?>
<svg id="Capa_2" xmlns="http://www.w3.org/2000/svg" viewBox="0 0 330 391.595">
  <defs>
    <style>
      .cls-1 {
        fill: #eaeaea;
      }

      .cls-2 {
        fill: #fff;
      }

      .cls-3 {
        font-family: Inter-SemiBold, Inter;
        font-size: 40px;
        font-variation-settings: 'opsz' 14, 'wght' 600;
        font-weight: 600;
      }

      .cls-4 {
        letter-spacing: .01em;
      }
    </style>
  </defs>
  <g id="Capa_1-2" data-name="Capa_1">
    <g>
      <path class="cls-2" d="M306.718.747H23.283C10.836.747.747,10.837.747,23.283v345.03c0,12.446,10.09,22.536,22.536,22.536h283.435c12.446,0,22.536-10.09,22.536-22.536V23.283c0-12.446-10.089-22.535-22.536-22.535ZM292.729,276.552c0,6.891-5.586,12.477-12.477,12.477H49.748c-6.891,0-12.477-5.586-12.477-12.477V50.173c0-6.891,5.586-12.477,12.477-12.477h230.504c6.891,0,12.477,5.586,12.477,12.477v226.38Z"/>
      <g>
        <path class="cls-1" d="M203.289,379.121h18.74c36.604-10.114,69.389-29.707,95.613-56.021v-6.042c-30.254,31.583-69.915,53.845-114.353,62.064Z"/>
        <path class="cls-1" d="M165,309.592c-26.6,0-51.5-7.517-72.748-20.564h-5.201c22.468,14.769,49.237,23.357,77.949,23.357s55.481-8.589,77.949-23.357h-5.201c-21.249,13.046-46.149,20.564-72.748,20.564Z"/>
        <path class="cls-1" d="M165,373.497c-60.688,0-115.256-27.04-152.642-69.853v6.069c38.015,41.681,92.37,67.826,152.642,67.826s114.626-26.145,152.641-67.826v-6.07c-37.385,42.813-91.954,69.853-152.641,69.853Z"/>
        <path class="cls-1" d="M12.358,317.057v6.042c26.224,26.315,59.009,45.907,95.613,56.021h18.74c-44.438-8.219-84.1-30.48-114.353-62.064Z"/>
        <path class="cls-1" d="M37.271,262.44c-11.08-15.165-19.603-32.36-24.913-50.928v10.348c5.881,16.678,14.351,32.117,24.913,45.823v-5.242Z"/>
        <path class="cls-1" d="M98.229,37.696h6.136c18.376-8.922,38.939-13.926,60.635-13.926s42.259,5.003,60.635,13.926h6.137c-19.962-10.668-42.681-16.719-66.771-16.719s-46.809,6.051-66.771,16.719Z"/>
        <path class="cls-1" d="M76.113,289.029h-4.864c25.906,20.459,58.447,32.665,93.752,32.665s67.845-12.206,93.751-32.665h-4.865c-24.888,18.65-55.638,29.693-88.887,29.693s-63.999-11.043-88.887-29.693Z"/>
        <path class="cls-1" d="M305.902,166.682c0,21.532-4.729,41.962-13.173,60.292v6.411c10.199-19.998,15.967-42.68,15.967-66.704s-5.768-46.706-15.967-66.704v6.411c8.445,18.33,13.173,38.76,13.173,60.292Z"/>
        <path class="cls-1" d="M37.271,209.472v-9.347c-2.723-10.693-4.173-21.899-4.173-33.443s1.449-22.75,4.173-33.442v-9.348c-4.398,13.465-6.787,27.849-6.787,42.79s2.389,29.325,6.787,42.79Z"/>
        <path class="cls-1" d="M37.271,51.179c-9.781,11.108-18.18,23.492-24.913,36.878v7.725c6.503-14.346,14.922-27.618,24.913-39.491v-5.112Z"/>
        <path class="cls-1" d="M165,300.464c-18.97,0-37.014-4.09-53.33-11.435h-6.085c17.928,8.988,38.098,14.05,59.415,14.05s41.486-5.062,59.414-14.05h-6.085c-16.316,7.345-34.359,11.435-53.33,11.435Z"/>
        <path class="cls-1" d="M296.901,166.682c0,11.543-1.449,22.75-4.172,33.442v9.348c4.398-13.464,6.787-27.849,6.787-42.79s-2.389-29.325-6.787-42.789v9.347c2.723,10.692,4.172,21.899,4.172,33.442Z"/>
        <path class="cls-1" d="M198.956,289.029h-10.405c-7.625,1.507-15.497,2.306-23.551,2.306s-15.926-.799-23.551-2.306h-10.405c10.803,3.087,22.192,4.742,33.956,4.742s23.153-1.655,33.956-4.742Z"/>
        <path class="cls-1" d="M43.199,12.475h-6.031c-8.981,7.667-17.287,16.119-24.809,25.259v6.168c9.093-11.605,19.445-22.148,30.841-31.427Z"/>
        <path class="cls-1" d="M317.087,29.087c-1.79-7.83-7.868-14.006-15.639-15.95,5.492,5.026,10.711,10.353,15.639,15.95Z"/>
        <path class="cls-1" d="M37.271,65.696c-10.559,13.704-19.033,29.135-24.913,45.811v10.35c5.308-18.564,13.837-35.748,24.913-50.908v-5.252Z"/>
        <path class="cls-1" d="M37.271,246.176c-14.054-23.145-22.174-50.375-22.174-79.495s8.12-56.349,22.174-79.494v-5.573c-14.473,22.269-23.436,48.527-24.913,76.768v16.585c1.475,28.245,10.439,54.507,24.913,76.78v-5.571Z"/>
        <path class="cls-1" d="M61.68,289.029h-4.73c28.691,26.084,66.572,41.973,108.051,41.973s79.359-15.889,108.05-41.973h-4.73c-27.8,24.188-63.905,38.822-103.32,38.822s-75.52-14.634-103.32-38.822Z"/>
        <path class="cls-1" d="M24.099,166.682c0-21.532,4.728-41.961,13.173-60.291v-6.411c-10.198,19.998-15.966,42.679-15.966,66.703s5.768,46.705,15.966,66.702v-6.411c-8.444-18.33-13.173-38.759-13.173-60.291Z"/>
        <path class="cls-1" d="M12.358,335.943c19.544,18.136,42.23,32.838,67.12,43.178h12.23c-29.87-10.632-56.843-27.559-79.35-49.224v6.046Z"/>
        <path class="cls-1" d="M165,32.9c12.123,0,23.865,1.676,35.024,4.796h8.724c-13.722-4.798-28.439-7.411-43.748-7.411s-30.026,2.613-43.748,7.411h8.724c11.158-3.12,22.901-4.796,35.024-4.796Z"/>
        <path class="cls-1" d="M74.664,12.475h-6.62c-22.421,14.545-41.469,33.979-55.686,56.804v6.809c15.145-26.151,36.632-48.083,62.305-63.614Z"/>
        <path class="cls-1" d="M261.956,12.475h-6.62c25.673,15.531,47.16,37.462,62.305,63.614v-6.809c-14.217-22.825-33.264-42.259-55.686-56.804Z"/>
        <path class="cls-1" d="M265.262,37.696c-13.25-10.614-28.159-19.186-44.276-25.221h-9.781c17.84,5.51,34.354,14.128,48.939,25.221h5.118Z"/>
        <path class="cls-1" d="M292.729,56.29c9.99,11.873,18.409,25.144,24.913,39.49v-7.725c-6.733-13.385-15.132-25.769-24.913-36.877v5.112Z"/>
        <path class="cls-1" d="M279.495,37.696c-10.804-9.87-22.848-18.369-35.867-25.221h-7.439c13.912,6.633,26.78,15.153,38.297,25.221h5.009Z"/>
        <path class="cls-1" d="M292.729,87.188c14.054,23.145,22.173,50.374,22.173,79.494s-8.119,56.349-22.173,79.494v5.571c14.474-22.274,23.438-48.536,24.913-76.782v-16.581c-1.477-28.242-10.44-54.5-24.913-76.77v5.573Z"/>
        <path class="cls-1" d="M315.016,367.997c-4.922,3.783-9.983,7.389-15.18,10.8,6.552-1.109,12.095-5.175,15.18-10.8Z"/>
        <path class="cls-1" d="M292.729,70.948c11.076,15.161,19.605,32.344,24.913,50.909v-10.35c-5.88-16.675-14.354-32.107-24.913-45.811v5.252Z"/>
        <path class="cls-1" d="M291.235,379.121c9.139-5.604,17.884-11.803,26.194-18.533.126-.938.213-1.888.213-2.86v-3.459c-11.127,9.33-23.102,17.651-35.777,24.852h9.37Z"/>
        <path class="cls-1" d="M58.146,12.475h-6.224c-15.065,11.388-28.406,24.991-39.563,40.325v6.383c12.459-18.144,27.973-33.972,45.788-46.708Z"/>
        <path class="cls-1" d="M28.553,13.137c-7.771,1.944-13.849,8.12-15.639,15.951,4.928-5.597,10.146-10.924,15.639-15.951Z"/>
        <path class="cls-1" d="M278.079,12.475h-6.225c17.815,12.736,33.329,28.565,45.788,46.708v-6.384c-11.157-15.334-24.498-28.937-39.563-40.324Z"/>
        <path class="cls-1" d="M85.733,37.696c23.011-14.6,50.182-23.054,79.267-23.054s56.256,8.454,79.267,23.054h5.418c-20.204-13.683-43.788-22.616-69.19-25.221h-30.99c-25.402,2.605-48.986,11.538-69.19,25.221h5.418Z"/>
        <path class="cls-1" d="M69.857,37.696c14.584-11.094,31.099-19.712,48.939-25.221h-9.781c-16.117,6.035-31.026,14.607-44.276,25.221h5.118Z"/>
        <path class="cls-1" d="M55.514,37.696c11.516-10.069,24.385-18.588,38.297-25.221h-7.439c-13.018,6.853-25.063,15.352-35.867,25.221h5.009Z"/>
        <path class="cls-1" d="M12.358,348.348c13.79,11.93,28.941,22.286,45.194,30.773h10.314c-20.264-9.57-38.939-22.034-55.508-36.87v6.097Z"/>
        <path class="cls-1" d="M165,346.109c-64.985,0-121.887-35.731-152.642-88.834v6.809c31.984,51.35,88.445,85.533,152.642,85.533s120.658-34.183,152.641-85.533v-6.809c-30.754,53.103-87.656,88.834-152.641,88.834Z"/>
        <path class="cls-1" d="M292.833,12.475h-6.031c11.396,9.278,21.747,19.822,30.841,31.427v-6.168c-7.522-9.14-15.829-17.592-24.809-25.259Z"/>
        <path class="cls-1" d="M250.522,379.121c24.89-10.34,47.576-25.042,67.12-43.178v-6.046c-22.507,21.665-49.48,38.592-79.35,49.224h12.23Z"/>
        <path class="cls-1" d="M281.772,288.927c-30.239,29.727-71.433,48.052-116.772,48.052s-86.533-18.325-116.772-48.052c-5.988-.728-10.654-5.693-10.929-11.81-10.004-11.884-18.431-25.174-24.941-39.535v7.722c28.336,56.333,86.116,95.005,152.642,95.005s124.305-38.671,152.641-95.004v-7.722c-6.51,14.362-14.937,27.651-24.941,39.535-.275,6.116-4.941,11.08-10.928,11.809Z"/>
        <path class="cls-1" d="M165,364.367c-61.766,0-116.906-29.299-152.642-74.905v6.167c36.491,44.338,91.369,72.602,152.642,72.602s116.151-28.264,152.641-72.602v-6.167c-35.735,45.607-90.875,74.905-152.641,74.905Z"/>
        <path class="cls-1" d="M12.358,357.728c0,.972.087,1.922.213,2.86,8.31,6.73,17.055,12.929,26.194,18.533h9.37c-12.675-7.201-24.65-15.521-35.777-24.852v3.459Z"/>
        <path class="cls-1" d="M30.164,378.797c-5.198-3.411-10.258-7.017-15.181-10.8,3.084,5.625,8.628,9.692,15.181,10.8Z"/>
        <path class="cls-1" d="M165,355.239c-63.145,0-119.027-32.106-152.642-81.059v6.385c34.553,47.491,90.105,78.36,152.642,78.36s118.088-30.868,152.641-78.359v-6.385c-33.615,48.953-89.496,81.058-152.641,81.058Z"/>
        <path class="cls-1" d="M292.729,267.682c10.562-13.705,19.031-29.145,24.913-45.823v-10.348c-5.31,18.569-13.833,35.764-24.913,50.929v5.242Z"/>
        <path class="cls-1" d="M272.448,379.121c16.253-8.486,31.404-18.842,45.193-30.772v-6.097c-16.568,14.836-35.243,27.3-55.507,36.87h10.314Z"/>
      </g>
      <path class="cls-1" d="M306.717,391.595H23.282c-12.838,0-23.282-10.444-23.282-23.282V23.283C0,10.445,10.444,0,23.282,0h283.435c12.838,0,23.283,10.445,23.283,23.283v345.03c0,12.838-10.445,23.282-23.283,23.282ZM23.282,1.494C11.268,1.494,1.494,11.268,1.494,23.283v345.03c0,12.014,9.774,21.788,21.788,21.788h283.435c12.015,0,21.789-9.774,21.789-21.788V23.283c0-12.015-9.774-21.789-21.789-21.789H23.282Z"/>
      <path class="cls-1" d="M280.252,289.776H49.748c-7.291,0-13.224-5.932-13.224-13.224V50.173c0-7.291,5.932-13.224,13.224-13.224h230.505c7.291,0,13.224,5.932,13.224,13.224v226.379c0,7.291-5.932,13.224-13.224,13.224ZM49.748,38.443c-6.468,0-11.73,5.262-11.73,11.73v226.379c0,6.468,5.262,11.73,11.73,11.73h230.505c6.468,0,11.73-5.262,11.73-11.73V50.173c0-6.468-5.262-11.73-11.73-11.73H49.748Z"/>
      <text id="qr-frame-text" class="cls-3" transform="translate(75.324 347.386)"><tspan x="0" y="0">S</tspan><tspan class="cls-4" x="26.016" y="0">c</tspan><tspan x="49.707" y="0">an Me!</tspan></text>
    </g>
  </g>
</svg>