<svg width="418" height="320" viewBox="0 0 418 320" fill="none" xmlns="http://www.w3.org/2000/svg">
<g clip-path="url(#clip0_57_7822)">
<rect x="1.39876e-05" y="42" width="235.887" height="235.887" rx="20.3002" fill="black"/>
<path d="M13.002 66.146C13.002 59.9912 17.9914 55.0017 24.1462 55.0017H211.813C217.928 55.0017 222.886 59.9592 222.886 66.0746V253.741C222.886 259.896 217.896 264.886 211.742 264.886H24.1463C17.9914 264.886 13.002 259.896 13.002 253.741V66.146Z" fill="white"/>
<path d="M89.2366 74.5043H32.5039V131.237H89.2366V74.5043ZM75.8721 117.872H45.8684V87.7803H75.8721V117.872Z" fill="black"/>
<path d="M67.553 96.1884H54.1885V109.553H67.553V96.1884Z" fill="black"/>
<path d="M203.234 74.5043H146.501V131.237H203.234V74.5043ZM190.046 117.872H159.954V87.7803H190.046V117.872Z" fill="black"/>
<path d="M181.638 96.1884H168.273V109.553H181.638V96.1884Z" fill="black"/>
<path d="M89.2366 188.589H32.5039V245.322H89.2366V188.589ZM75.8721 231.957H45.8684V201.953H75.8721V231.957Z" fill="black"/>
<path d="M67.553 210.273H54.1885V223.638H67.553V210.273Z" fill="black"/>
<path d="M59.2336 140.176H45.8692V153.541H59.2336V140.176Z" fill="black"/>
<path d="M72.2435 166.905V180.181H85.5195V166.905H72.4205V153.541H59.1445V166.905H72.2435Z" fill="black"/>
<path d="M139.331 100.171H125.967V113.536H139.331V100.171Z" fill="black"/>
<path d="M112.603 87.7802H99.2383V113.447H112.603V87.7802Z" fill="black"/>
<path d="M125.966 74.5043H112.602V87.8688H125.966V74.5043Z" fill="black"/>
<path d="M125.967 113.536H112.603V126.812H99.2383V140.176H125.967V113.536Z" fill="black"/>
<path d="M112.603 180.181V193.28H125.967V206.29H152.608V192.926H125.967V180.004H112.603V153.541H99.2383V180.181H112.603Z" fill="black"/>
<path d="M139.331 140.176H125.967V166.905H139.331V140.176Z" fill="black"/>
<path d="M165.972 180.004H203.322V153.275H190.046V140.265H165.707V153.629H152.696V166.994H166.061V180.004H165.972ZM165.972 153.541H190.046V166.551H166.061L165.972 153.541Z" fill="black"/>
<path d="M203.409 192.926H190.045V219.655H203.409V192.926Z" fill="black"/>
<path d="M152.608 166.905H139.243V180.269H152.608V166.905Z" fill="black"/>
<path d="M165.972 206.29H152.607V219.655H165.972V206.29Z" fill="black"/>
<path d="M179.336 192.926H165.972V206.29H179.336V192.926Z" fill="black"/>
<path d="M179.336 245.322V232.842H190.045V219.566H165.972V245.322H179.336Z" fill="black"/>
<path d="M112.603 193.28H99.2383V218.681H112.603V193.28Z" fill="black"/>
<path d="M125.966 245.322V231.958H138.977V245.322H152.341V231.958H139.242V218.593H112.602V245.322H125.966Z" fill="black"/>
<path d="M99.1499 140.176H72.4209V153.541H99.1499V140.176Z" fill="black"/>
<path d="M235.298 77.064H403.236C411.39 77.064 418 83.674 418 91.8278V145.461C418 153.615 411.39 160.225 403.236 160.225H235.298V77.064Z" fill="black"/>
<path d="M267.278 152.435C261.312 152.435 257.004 150.949 254.355 147.978C251.73 145.007 250.418 140.278 250.418 133.792V127.404H263.342V135.574C263.342 137.085 263.565 138.273 264.01 139.14C264.481 139.981 265.285 140.402 266.424 140.402C267.613 140.402 268.43 140.056 268.875 139.362C269.346 138.669 269.581 137.53 269.581 135.946C269.581 133.94 269.383 132.269 268.987 130.932C268.591 129.57 267.897 128.283 266.907 127.07C265.942 125.832 264.592 124.396 262.859 122.762L256.991 117.191C252.609 113.057 250.418 108.328 250.418 103.005C250.418 97.434 251.705 93.1879 254.28 90.2664C256.88 87.3449 260.631 85.8842 265.533 85.8842C271.525 85.8842 275.771 87.4811 278.271 90.6749C280.797 93.8688 282.059 98.7214 282.059 105.233H268.764V100.739C268.764 99.8479 268.504 99.1547 267.984 98.6595C267.489 98.1643 266.808 97.9168 265.942 97.9168C264.902 97.9168 264.134 98.2139 263.639 98.8081C263.169 99.3775 262.933 100.12 262.933 101.036C262.933 101.952 263.181 102.943 263.676 104.007C264.171 105.072 265.149 106.297 266.61 107.684L274.149 114.926C275.659 116.362 277.046 117.884 278.308 119.494C279.571 121.078 280.586 122.935 281.354 125.064C282.121 127.169 282.505 129.744 282.505 132.789C282.505 138.929 281.366 143.745 279.088 147.236C276.835 150.702 272.899 152.435 267.278 152.435Z" fill="white"/>
<path d="M305.156 152.435C300.427 152.435 296.614 150.962 293.717 148.015C290.846 145.069 289.41 140.947 289.41 135.649V105.493C289.41 99.1547 290.66 94.302 293.16 90.9349C295.686 87.5677 299.783 85.8842 305.453 85.8842C308.548 85.8842 311.296 86.4536 313.698 87.5925C316.124 88.7314 318.03 90.4397 319.417 92.7175C320.803 94.9705 321.496 97.8177 321.496 101.259V112.549H308.498V102.893C308.498 100.937 308.251 99.6251 307.756 98.9566C307.26 98.2634 306.493 97.9168 305.453 97.9168C304.24 97.9168 303.423 98.3624 303.002 99.2537C302.581 100.12 302.371 101.284 302.371 102.745V135.463C302.371 137.27 302.631 138.545 303.15 139.288C303.695 140.031 304.463 140.402 305.453 140.402C306.567 140.402 307.347 139.944 307.793 139.028C308.263 138.112 308.498 136.924 308.498 135.463V123.69H321.645V136.057C321.645 141.801 320.197 145.973 317.3 148.572C314.403 151.147 310.355 152.435 305.156 152.435Z" fill="white"/>
<path d="M327.287 151.841L333.6 86.4784H355.772L361.973 151.841H349.607L348.678 141.293H340.805L339.988 151.841H327.287ZM341.733 130.858H347.676L344.816 97.6197H344.222L341.733 130.858Z" fill="white"/>
<path d="M369.027 151.841V86.4784H382.471L388.487 117.785V86.4784H401.114V151.841H388.338L381.802 119.159V151.841H369.027Z" fill="white"/>
<path d="M235.298 160.225H338.975C347.129 160.225 353.739 166.835 353.739 174.989V228.622C353.739 236.776 347.129 243.386 338.975 243.386H235.298V160.225Z" fill="black"/>
<path d="M250.418 235.352V169.99H270.324L275.82 209.839L281.279 169.99H301.371V235.352H289.413V188.262L281.911 235.352H270.175L262.228 188.262V235.352H250.418Z" fill="white"/>
<path d="M310.207 235.352V169.99H336.352V182.617H323.502V195.355H335.832V207.648H323.502V222.614H337.206V235.352H310.207Z" fill="white"/>
</g>
<defs>
<clipPath id="clip0_57_7822">
<rect width="320" height="418" fill="white" transform="translate(418 1.82714e-05) rotate(90)"/>
</clipPath>
</defs>
</svg>
