<?xml version="1.0" encoding="UTF-8"?>
<svg id="Capa_2" xmlns="http://www.w3.org/2000/svg" viewBox="0 0 330 371.25">
  <defs>
    <style>
      .frame_10_text {
        fill: #fff;
        font-family: Inter-SemiBold, Inter;
        font-size: 30px;
        font-variation-settings: 'opsz' 14, 'wght' 600;
        font-weight: 600;
      }
    </style>
  </defs>
  <g id="Capa_1-2" data-name="Capa_1">
    <g>
      <path fill='currentColor' d="M309.375,41.25h-61.875c-11.391,0-20.625-9.234-20.625-20.625S217.641,0,206.25,0H20.625C9.234,0,0,9.234,0,20.625v330c0,11.391,9.234,20.625,20.625,20.625h288.75c11.391,0,20.625-9.234,20.625-20.625V61.875c0-11.391-9.234-20.625-20.625-20.625ZM299.062,330.737c0,5.289-4.287,9.576-9.576,9.576H40.513c-5.289,0-9.576-4.287-9.576-9.576V81.764c0-5.289,4.287-9.576,9.576-9.576h248.973c5.289,0,9.576,4.287,9.576,9.576v248.973Z"/>
      <text id="qr-frame-text" class="frame_10_text" x='30' y='44'>Scan Me!</text>
    </g>
  </g>
</svg>