<?xml version="1.0" encoding="UTF-8"?>
<svg id="Capa_2" xmlns="http://www.w3.org/2000/svg" viewBox="0 0 98.462 116.923">
  <defs>
    <style>
      .cls-1 {
        fill: #a5a5a5;
      }

      .cls-2 {
        font-family: Inter-SemiBold, Inter;
        font-size: 12.308px;
        font-variation-settings: 'opsz' 14, 'wght' 600;
        font-weight: 600;
      }

      .cls-2, .cls-3 {
        fill: #fff;
      }

      .cls-4 {
        letter-spacing: 0em;
      }

      .cls-5 {
        letter-spacing: .01em;
      }
    </style>
  </defs>
  <g id="Capa_1-2" data-name="Capa_1">
    <g>
      <rect class="cls-1" width="98.462" height="116.923" rx="23.047" ry="23.047"/>
      <rect x="3.077" y="3.069" width="92.308" height="110.785" rx="20.233" ry="20.233"/>
      <rect class="cls-3" x="12.308" y="12.268" width="73.846" height="73.846" rx="9.231" ry="9.231"/>
      <g>
        <path d="M39.246,19.499h-19.723v19.723h19.723v-19.723ZM34.6,34.576h-10.431v-10.462h10.431v10.462Z"/>
        <path d="M31.708,27.038h-4.646v4.646h4.646v-4.646Z"/>
        <path d="M78.877,19.499h-19.723v19.723h19.723v-19.723ZM74.292,34.576h-10.462v-10.462h10.462v10.462Z"/>
        <path d="M71.369,27.038h-4.646v4.646h4.646v-4.646Z"/>
        <path d="M39.246,59.161h-19.723v19.723h19.723v-19.723ZM34.6,74.238h-10.431v-10.431h10.431v10.431Z"/>
        <path d="M31.708,66.699h-4.646v4.646h4.646v-4.646Z"/>
        <path d="M28.815,42.33h-4.646v4.646h4.646v-4.646Z"/>
        <path d="M33.338,51.622v4.615h4.615v-4.615h-4.554v-4.646h-4.615v4.646h4.554Z"/>
        <path d="M56.662,28.422h-4.646v4.646h4.646v-4.646Z"/>
        <path d="M47.369,24.114h-4.646v8.923h4.646v-8.923Z"/>
        <path d="M52.015,19.499h-4.646v4.646h4.646v-4.646Z"/>
        <path d="M52.015,33.068h-4.646v4.615h-4.646v4.646h9.292v-9.262Z"/>
        <path d="M47.369,56.238v4.554h4.646v4.523h9.262v-4.646h-9.262v-4.492h-4.646v-9.2h-4.646v9.262h4.646Z"/>
        <path d="M56.662,42.33h-4.646v9.292h4.646v-9.292Z"/>
        <path d="M65.923,56.176h12.985v-9.292h-4.615v-4.523h-8.462v4.646h-4.523v4.646h4.646v4.523h-.031ZM65.923,46.976h8.369v4.523h-8.338l-.031-4.523Z"/>
        <path d="M78.938,60.668h-4.646v9.292h4.646v-9.292Z"/>
        <path d="M61.277,51.622h-4.646v4.646h4.646v-4.646Z"/>
        <path d="M65.923,65.314h-4.646v4.646h4.646v-4.646Z"/>
        <path d="M70.569,60.668h-4.646v4.646h4.646v-4.646Z"/>
        <path d="M70.569,78.884v-4.338h3.723v-4.615h-8.369v8.954h4.646Z"/>
        <path d="M47.369,60.791h-4.646v8.831h4.646v-8.831Z"/>
        <path d="M52.015,78.884v-4.646h4.523v4.646h4.646v-4.646h-4.554v-4.646h-9.262v9.292h4.646Z"/>
        <path d="M42.692,42.33h-9.292v4.646h9.292v-4.646Z"/>
      </g>
      <text id="qr-frame-text" class="cls-2" transform="translate(21.632 103.464)"><tspan x="0" y="0">S</tspan><tspan class="cls-5" x="8.005" y="0">c</tspan><tspan class="cls-4" x="15.295" y="0">an Me!</tspan></text>
    </g>
  </g>
</svg>