<svg width="320" height="418" viewBox="0 0 320 418" fill="none" xmlns="http://www.w3.org/2000/svg">
<g clip-path="url(#clip0_57_7266)">
<path d="M0 24C0 10.7452 10.7452 0 24 0H296C309.255 0 320 10.7452 320 24V394C320 407.255 309.255 418 296 418H24C10.7452 418 0 407.255 0 394V24Z" fill="white"/>
<path d="M296 413V418H24V413H296ZM315 394V24C315 13.5066 306.493 5 296 5H24C13.5066 5 5 13.5066 5 24V394C5 404.493 13.5066 413 24 413V418L23.3809 417.992C10.4122 417.664 0 407.048 0 394V24C0 10.7452 10.7452 5.15406e-07 24 0H296C309.255 0 320 10.7452 320 24V394C320 407.048 309.588 417.664 296.619 417.992L296 418V413C306.493 413 315 404.493 315 394Z" fill="black"/>
<path d="M0 327H320V393C320 406.807 308.807 418 295 418H25C11.1929 418 0 406.807 0 393V327Z" fill="black"/>
<path d="M52.062 364.237C51.8648 362.572 51.0653 361.279 49.6633 360.359C48.2613 359.439 46.5417 358.979 44.5045 358.979C43.0149 358.979 41.7115 359.22 40.5943 359.702C39.4881 360.184 38.6228 360.847 37.9985 361.69C37.3851 362.534 37.0784 363.492 37.0784 364.565C37.0784 365.463 37.292 366.236 37.7192 366.882C38.1573 367.517 38.7159 368.048 39.395 368.475C40.074 368.892 40.786 369.237 41.5308 369.511C42.2756 369.773 42.9601 369.987 43.5844 370.151L47.0018 371.071C47.878 371.301 48.8528 371.619 49.9262 372.024C51.0105 372.429 52.0456 372.983 53.0313 373.684C54.028 374.374 54.8495 375.261 55.4957 376.345C56.1419 377.429 56.4651 378.76 56.4651 380.337C56.4651 382.156 55.9886 383.799 55.0357 385.266C54.0938 386.734 52.7137 387.9 50.8955 388.766C49.0883 389.631 46.8922 390.064 44.3073 390.064C41.8977 390.064 39.8112 389.675 38.0478 388.897C36.2953 388.12 34.9152 387.035 33.9076 385.644C32.9108 384.253 32.3468 382.638 32.2153 380.798H36.4212C36.5308 382.068 36.9579 383.12 37.7027 383.952C38.4585 384.773 39.4114 385.387 40.5614 385.792C41.7225 386.186 42.9711 386.383 44.3073 386.383C45.8626 386.383 47.2591 386.132 48.4968 385.628C49.7345 385.113 50.7148 384.401 51.4377 383.492C52.1606 382.572 52.522 381.498 52.522 380.272C52.522 379.155 52.2099 378.245 51.5855 377.544C50.9612 376.844 50.1398 376.274 49.1211 375.836C48.1025 375.398 47.0017 375.014 45.8188 374.686L41.6786 373.503C39.0499 372.747 36.9689 371.668 35.4355 370.266C33.9021 368.864 33.1354 367.03 33.1354 364.762C33.1354 362.879 33.6447 361.236 34.6633 359.834C35.6929 358.421 37.0729 357.325 38.8035 356.548C40.545 355.759 42.4892 355.365 44.6359 355.365C46.8046 355.365 48.7323 355.754 50.4191 356.531C52.1058 357.298 53.4421 358.35 54.4278 359.686C55.4245 361.022 55.9503 362.539 56.005 364.237H52.062Z" fill="white"/>
<path d="M90.2397 366.34H86.1652C85.9243 365.168 85.5026 364.138 84.9002 363.251C84.3087 362.364 83.5858 361.619 82.7315 361.017C81.8881 360.403 80.9516 359.943 79.9221 359.637C78.8925 359.33 77.8191 359.176 76.7019 359.176C74.6647 359.176 72.8191 359.691 71.1652 360.721C69.5223 361.75 68.2134 363.267 67.2386 365.272C66.2747 367.276 65.7928 369.735 65.7928 372.649C65.7928 375.562 66.2747 378.021 67.2386 380.025C68.2134 382.03 69.5223 383.547 71.1652 384.576C72.8191 385.606 74.6647 386.121 76.7019 386.121C77.8191 386.121 78.8925 385.967 79.9221 385.661C80.9516 385.354 81.8881 384.899 82.7315 384.297C83.5858 383.684 84.3087 382.933 84.9002 382.046C85.5026 381.148 85.9243 380.118 86.1652 378.957H90.2397C89.933 380.677 89.3744 382.216 88.5639 383.574C87.7534 384.932 86.7457 386.088 85.5409 387.041C84.3361 387.983 82.9834 388.7 81.4829 389.193C79.9933 389.686 78.3996 389.932 76.7019 389.932C73.8323 389.932 71.2802 389.231 69.0458 387.829C66.8114 386.427 65.0535 384.434 63.772 381.849C62.4905 379.264 61.8498 376.197 61.8498 372.649C61.8498 369.1 62.4905 366.033 63.772 363.448C65.0535 360.863 66.8114 358.87 69.0458 357.468C71.2802 356.066 73.8323 355.365 76.7019 355.365C78.3996 355.365 79.9933 355.611 81.4829 356.104C82.9834 356.597 84.3361 357.32 85.5409 358.273C86.7457 359.215 87.7534 360.365 88.5639 361.723C89.3744 363.07 89.933 364.609 90.2397 366.34Z" fill="white"/>
<path d="M98.2038 389.472H93.9322L106.287 355.825H110.493L122.848 389.472H118.576L108.521 361.148H108.259L98.2038 389.472ZM99.781 376.329H116.999V379.943H99.781V376.329Z" fill="white"/>
<path d="M154.77 355.825V389.472H150.827L132.492 363.054H132.163V389.472H128.089V355.825H132.032L150.433 382.309H150.761V355.825H154.77Z" fill="white"/>
<path d="M175.935 355.825H180.798L192.233 383.755H192.627L204.062 355.825H208.925V389.472H205.114V363.908H204.785L194.27 389.472H190.59L180.075 363.908H179.747V389.472H175.935V355.825Z" fill="white"/>
<path d="M217.095 389.472V355.825H237.402V359.439H221.169V370.808H236.35V374.423H221.169V385.858H237.664V389.472H217.095Z" fill="white"/>
<path d="M269.279 385.244C268.87 385.244 268.477 385.409 268.188 385.703C267.899 385.997 267.737 386.395 267.737 386.811C267.737 387.226 267.899 387.624 268.188 387.918C268.477 388.212 268.87 388.377 269.279 388.377H275.447C275.856 388.377 276.249 388.212 276.538 387.918C276.827 387.624 276.99 387.226 276.99 386.811C276.99 386.395 276.827 385.997 276.538 385.703C276.249 385.409 275.856 385.244 275.447 385.244H269.279ZM263.11 347.654C261.474 347.654 259.905 348.314 258.748 349.489C257.591 350.664 256.941 352.258 256.941 353.919V391.509C256.941 393.171 257.591 394.765 258.748 395.94C259.905 397.114 261.474 397.775 263.11 397.775H281.616C283.252 397.775 284.821 397.114 285.978 395.94C287.135 394.765 287.785 393.171 287.785 391.509V353.919C287.785 352.258 287.135 350.664 285.978 349.489C284.821 348.314 283.252 347.654 281.616 347.654H263.11ZM260.026 353.919C260.026 353.088 260.351 352.292 260.929 351.704C261.508 351.117 262.292 350.787 263.11 350.787H281.616C282.434 350.787 283.219 351.117 283.797 351.704C284.375 352.292 284.7 353.088 284.7 353.919V391.509C284.7 392.34 284.375 393.137 283.797 393.725C283.219 394.312 282.434 394.642 281.616 394.642H263.11C262.292 394.642 261.508 394.312 260.929 393.725C260.351 393.137 260.026 392.34 260.026 391.509V353.919Z" fill="white"/>
<path d="M120.959 53H44V129.959H120.959V53ZM102.83 111.83H62.1292V71.0091H102.83V111.83Z" fill="black"/>
<path d="M91.5442 82.4148H73.415V100.544H91.5442V82.4148Z" fill="black"/>
<path d="M275.597 53H198.638V129.959H275.597V53ZM257.708 111.83H216.887V71.0091H257.708V111.83Z" fill="black"/>
<path d="M246.302 82.4148H228.173V100.544H246.302V82.4148Z" fill="black"/>
<path d="M120.959 207.758H44V284.717H120.959V207.758ZM102.83 266.588H62.1292V225.887H102.83V266.588Z" fill="black"/>
<path d="M91.5442 237.173H73.415V255.302H91.5442V237.173Z" fill="black"/>
<path d="M80.259 142.085H62.1299V160.214H80.259V142.085Z" fill="black"/>
<path d="M97.9076 178.343V196.352H115.917V178.343H98.1478V160.214H80.1387V178.343H97.9076Z" fill="black"/>
<path d="M188.913 87.8176H170.784V105.947H188.913V87.8176Z" fill="black"/>
<path d="M152.656 71.0092H134.526V105.827H152.656V71.0092Z" fill="black"/>
<path d="M170.784 53H152.655V71.1291H170.784V53Z" fill="black"/>
<path d="M170.785 105.947H152.656V123.956H134.526V142.085H170.785V105.947Z" fill="black"/>
<path d="M152.656 196.352V214.121H170.785V231.77H206.923V213.641H170.785V196.112H152.656V160.214H134.526V196.352H152.656Z" fill="black"/>
<path d="M188.913 142.085H170.784V178.343H188.913V142.085Z" fill="black"/>
<path d="M225.052 196.112H275.718V159.854H257.709V142.205H224.692V160.334H207.043V178.463H225.172V196.112H225.052ZM225.052 160.214H257.709V177.863H225.172L225.052 160.214Z" fill="black"/>
<path d="M275.837 213.641H257.708V249.899H275.837V213.641Z" fill="black"/>
<path d="M206.923 178.343H188.793V196.472H206.923V178.343Z" fill="black"/>
<path d="M225.052 231.77H206.923V249.899H225.052V231.77Z" fill="black"/>
<path d="M243.181 213.641H225.052V231.77H243.181V213.641Z" fill="black"/>
<path d="M243.181 284.717V267.788H257.708V249.779H225.052V284.717H243.181Z" fill="black"/>
<path d="M152.656 214.121H134.526V248.579H152.656V214.121Z" fill="black"/>
<path d="M170.784 284.717V266.588H188.433V284.717H206.562V266.588H188.794V248.459H152.655V284.717H170.784Z" fill="black"/>
<path d="M134.406 142.085H98.1479V160.214H134.406V142.085Z" fill="black"/>
</g>
<defs>
<clipPath id="clip0_57_7266">
<rect width="320" height="418" fill="white"/>
</clipPath>
</defs>
</svg>
