<svg width="320" height="418" viewBox="0 0 320 418" fill="none" xmlns="http://www.w3.org/2000/svg">
<defs>
    <style>
    .cls-1 {
        font-family: var(--font-caveat), Caveat, sans-serif;
        font-size: 60px;
        font-variation-settings: 'opsz' 14, 'wght' 600;
        font-weight: 400;
        }


        .cls-2 {
        letter-spacing: .01em;
        }
    </style>
</defs>
<path d="M4 108.437V60.2184C4 33.5882 25.5882 12 52.2184 12H100.437C102.003 12.0002 103.273 13.2699 103.273 14.8362C103.273 16.4025 102.003 17.6722 100.437 17.6724H52.2184C28.7211 17.6724 9.6724 36.7211 9.6724 60.2184V108.437C9.67215 110.003 8.40253 111.273 6.8362 111.273C5.26987 111.273 4.00025 110.003 4 108.437Z" fill="currentColor"/>
<path d="M316 227.563L316 275.782C316 302.412 294.412 324 267.782 324L219.563 324C217.997 324 216.727 322.73 216.727 321.164C216.727 319.597 217.997 318.328 219.563 318.328L267.782 318.328C291.279 318.328 310.328 299.279 310.328 275.782L310.328 227.563C310.328 225.997 311.597 224.727 313.164 224.727C314.73 224.727 316 225.997 316 227.563Z" fill="currentColor"/>
<path d="M219.563 12L267.782 12C294.412 12 316 33.5882 316 60.2184L316 108.437C316 110.003 314.73 111.273 313.164 111.273C311.597 111.273 310.328 110.003 310.328 108.437L310.328 60.2184C310.328 36.7211 291.279 17.6724 267.782 17.6724L219.563 17.6724C217.997 17.6722 216.727 16.4025 216.727 14.8362C216.727 13.2699 217.997 12.0002 219.563 12Z" fill="currentColor"/>
<path d="M100.437 324L52.2184 324C25.5882 324 4 302.412 4.00001 275.782L4.00001 227.563C4.00026 225.997 5.26989 224.727 6.83621 224.727C8.40254 224.727 9.67217 225.997 9.67242 227.563L9.67241 275.782C9.67241 299.279 28.7211 318.328 52.2184 318.328L100.437 318.328C102.003 318.328 103.273 319.597 103.273 321.164C103.273 322.73 102.003 324 100.437 324Z" fill="currentColor"/>
<path d="M265.678 40.1807C277.906 40.1809 287.819 50.0939 287.819 62.3223V273.678C287.819 285.906 277.906 295.819 265.678 295.819H54.3223C42.0939 295.819 32.1808 285.906 32.1807 273.678V62.3223C32.1808 50.0939 42.0939 40.1808 54.3223 40.1807H265.678ZM58.3486 54.2715C51.6785 54.2715 46.2715 59.6785 46.2715 66.3486V269.651C46.2715 276.322 51.6785 281.729 58.3486 281.729H261.651C268.322 281.729 273.729 276.322 273.729 269.651V66.3486C273.729 59.6785 268.322 54.2715 261.651 54.2715H58.3486Z" fill="currentColor"/>
<text id="qr-frame-text" x="160" y="385" font-size="40px" font-weight="600" font-family="Inter, sans-serif" fill="black" text-anchor="middle" class='cls-1'>Scan Me!</text>
</svg>
