<svg width="320" height="418" viewBox="0 0 320 418" fill="none" xmlns="http://www.w3.org/2000/svg">
<path d="M287.251 0C300.831 0 311.84 11.0085 311.84 24.5882V70.304C311.259 70.2703 310.673 70.2515 310.084 70.2515C293.595 70.2518 280.227 83.6197 280.226 100.109C280.227 116.598 293.595 129.966 310.084 129.966C310.673 129.966 311.259 129.947 311.84 129.914V393.412C311.84 406.991 300.831 418 287.251 418H32.5882C19.0085 418 8 406.991 8 393.412V129.914C8.58103 129.947 9.16639 129.966 9.75587 129.966C26.2453 129.966 39.6131 116.598 39.6132 100.109C39.6129 83.6195 26.2452 70.2516 9.75587 70.2515C9.16642 70.2515 8.58101 70.2703 8 70.304V24.5882C8 11.0085 19.0085 0 32.5882 0H287.251Z" fill="white"/>
<path d="M287.251 413.39V418H32.5882V413.39H287.251ZM307.229 393.412V134.456C289.821 133.029 276.076 118.668 275.628 100.999L275.616 100.109C275.617 82.0348 289.53 67.2112 307.229 65.7597V24.5882C307.229 13.5547 298.285 4.61029 287.251 4.61029H32.5882C21.5547 4.61029 12.6103 13.5547 12.6103 24.5882V65.7597C30.0191 67.1871 43.7634 81.5501 44.2115 99.2189L44.2235 100.109C44.2234 118.183 30.3105 133.005 12.6103 134.456V393.412C12.6103 404.445 21.5547 413.39 32.5882 413.39V418C19.0085 418 8 406.991 8 393.412V129.914C8.58103 129.947 9.16639 129.966 9.75587 129.966C26.2453 129.966 39.6131 116.598 39.6132 100.109C39.6129 83.6195 26.2452 70.2516 9.75587 70.2515C9.16642 70.2515 8.58101 70.2703 8 70.304V24.5882C8 11.0085 19.0085 0 32.5882 0H287.251C300.831 0 311.84 11.0085 311.84 24.5882V70.304C311.259 70.2703 310.673 70.2515 310.084 70.2515C293.595 70.2518 280.227 83.6197 280.226 100.109C280.227 116.598 293.595 129.966 310.084 129.966C310.673 129.966 311.259 129.947 311.84 129.914V393.412C311.84 406.991 300.831 418 287.251 418V413.39C298.285 413.39 307.229 404.445 307.229 393.412Z" fill="black"/>
<path d="M55.9275 95.2794V99.8897H52.5664V95.2794H55.9275ZM69.3746 95.2794V99.8897H62.651V95.2794H69.3746ZM82.8218 95.2794V99.8897H76.0982V95.2794H82.8218ZM96.2689 95.2794V99.8897H89.5453V95.2794H96.2689ZM109.715 95.2794V99.8897H102.991V95.2794H109.715ZM123.162 95.2794V99.8897H116.438V95.2794H123.162ZM136.609 95.2794V99.8897H129.885V95.2794H136.609ZM150.055 95.2794V99.8897H143.332V95.2794H150.055ZM163.502 95.2794V99.8897H156.778V95.2794H163.502ZM176.949 95.2794V99.8897H170.225V95.2794H176.949ZM190.396 95.2794V99.8897H183.672V95.2794H190.396ZM203.842 95.2794V99.8897H197.118V95.2794H203.842ZM217.289 95.2794V99.8897H210.565V95.2794H217.289ZM230.736 95.2794V99.8897H224.012V95.2794H230.736ZM244.182 95.2794V99.8897H237.46V95.2794H244.182ZM257.629 95.2794V99.8897H250.905V95.2794H257.629ZM267.713 95.2794V99.8897H264.352V95.2794H267.713Z" fill="black"/>
<path d="M74.306 75.3037C69.8755 75.3037 66.6767 74.2007 64.7097 71.9946C62.761 69.7885 61.7866 66.2772 61.7866 61.4607V56.7176H71.383V62.7843C71.383 63.9057 71.5484 64.7881 71.8793 65.4316C72.2286 66.0566 72.8261 66.3691 73.6718 66.3691C74.5542 66.3691 75.1609 66.1118 75.4918 65.597C75.8411 65.0823 76.0157 64.2366 76.0157 63.06C76.0157 61.571 75.8686 60.3301 75.5745 59.3373C75.2804 58.3262 74.7656 57.3703 74.0303 56.4694C73.3133 55.5503 72.3114 54.484 71.0245 53.2707L66.6675 49.1343C63.4136 46.0642 61.7866 42.5529 61.7866 38.6004C61.7866 34.464 62.7426 31.3112 64.6545 29.1419C66.5848 26.9726 69.37 25.8879 73.01 25.8879C77.4588 25.8879 80.6117 27.0737 82.4684 29.4452C84.3436 31.8167 85.2812 35.42 85.2812 40.2549H75.409V36.9182C75.409 36.2564 75.216 35.7417 74.83 35.374C74.4623 35.0063 73.9567 34.8225 73.3133 34.8225C72.5412 34.8225 71.9713 35.0431 71.6036 35.4843C71.2543 35.9071 71.0796 36.4586 71.0796 37.1388C71.0796 37.819 71.2635 38.5544 71.6312 39.3449C71.9988 40.1354 72.725 41.0454 73.8096 42.0749L79.4075 47.4522C80.5289 48.5184 81.5584 49.649 82.496 50.844C83.4336 52.0206 84.1873 53.3993 84.7572 54.9804C85.3271 56.543 85.6121 58.4549 85.6121 60.7161C85.6121 65.2753 84.7664 68.851 83.0751 71.4431C81.4022 74.0168 78.4791 75.3037 74.306 75.3037Z" fill="black"/>
<path d="M101.866 75.3037C98.355 75.3037 95.5239 74.2098 93.373 72.0222C91.2405 69.8345 90.1742 66.7736 90.1742 62.8394V40.4479C90.1742 35.7417 91.1026 32.1384 92.9594 29.6382C94.8345 27.138 97.877 25.8879 102.087 25.8879C104.385 25.8879 106.426 26.3108 108.209 27.1564C110.01 28.0021 111.426 29.2706 112.455 30.9619C113.485 32.6348 114 34.7489 114 37.3043V45.6873H104.348V38.5176C104.348 37.0653 104.164 36.091 103.797 35.5946C103.429 35.0799 102.859 34.8225 102.087 34.8225C101.186 34.8225 100.579 35.1534 100.267 35.8152C99.9544 36.4586 99.7981 37.3227 99.7981 38.4073V62.7016C99.7981 64.0436 99.9912 64.9903 100.377 65.5419C100.782 66.0934 101.352 66.3691 102.087 66.3691C102.914 66.3691 103.493 66.029 103.824 65.3488C104.173 64.6686 104.348 63.7862 104.348 62.7016V53.9601H114.11V63.1428C114.11 67.4078 113.034 70.5055 110.884 72.4358C108.733 74.3477 105.727 75.3037 101.866 75.3037Z" fill="black"/>
<path d="M117.735 74.8625L122.422 26.3292H138.885L143.49 74.8625H134.308L133.618 67.031H127.772L127.165 74.8625H117.735ZM128.461 59.2822H132.874L130.75 34.6019H130.309L128.461 59.2822Z" fill="black"/>
<path d="M148.163 74.8625V26.3292H158.145L162.612 49.5755V26.3292H171.988V74.8625H162.502L157.649 50.5958V74.8625H148.163Z" fill="black"/>
<path d="M192.915 74.8625V26.3292H207.695L211.777 55.9179L215.83 26.3292H230.749V74.8625H221.869V39.8964L216.299 74.8625H207.585L201.684 39.8964V74.8625H192.915Z" fill="black"/>
<path d="M236.745 74.8625V26.3292H256.158V35.7049H246.617V45.1634H255.772V54.291H246.617V65.404H256.792V74.8625H236.745Z" fill="black"/>
<path d="M122.896 152.626H46.4634V229.059H122.896V152.626ZM104.891 211.054H64.4685V170.512H104.891V211.054Z" fill="black"/>
<path d="M93.6819 181.84H75.6768V199.845H93.6819V181.84Z" fill="black"/>
<path d="M276.475 152.627H200.043V229.059H276.475V152.627ZM258.709 211.054H218.167V170.512H258.709V211.054Z" fill="black"/>
<path d="M247.381 181.84H229.376V199.845H247.381V181.84Z" fill="black"/>
<path d="M122.896 306.326H46.4634V382.758H122.896V306.326ZM104.891 364.753H64.4685V324.331H104.891V364.753Z" fill="black"/>
<path d="M93.6819 335.539H75.6768V353.545H93.6819V335.539Z" fill="black"/>
<path d="M82.4739 241.102H64.4688V259.107H82.4739V241.102Z" fill="black"/>
<path d="M100.002 277.112V294.998H117.888V277.112H100.24V259.107H82.3545V277.112H100.002Z" fill="black"/>
<path d="M190.385 187.206H172.38V205.211H190.385V187.206Z" fill="black"/>
<path d="M154.375 170.512H136.37V205.092H154.375V170.512Z" fill="black"/>
<path d="M172.38 152.627H154.375V170.632H172.38V152.627Z" fill="black"/>
<path d="M172.38 205.211H154.375V223.097H136.37V241.102H172.38V205.211Z" fill="black"/>
<path d="M154.375 294.998V312.646H172.38V330.174H208.271V312.169H172.38V294.76H154.375V259.107H136.37V294.998H154.375Z" fill="black"/>
<path d="M190.385 241.102H172.38V277.112H190.385V241.102Z" fill="black"/>
<path d="M226.276 294.76H276.595V258.75H258.709V241.221H225.918V259.227H208.39V277.232H226.395V294.76H226.276ZM226.276 259.107H258.709V276.636H226.395L226.276 259.107Z" fill="black"/>
<path d="M276.715 312.169H258.709V348.179H276.715V312.169Z" fill="black"/>
<path d="M208.271 277.112H190.266V295.118H208.271V277.112Z" fill="black"/>
<path d="M226.277 330.174H208.271V348.179H226.277V330.174Z" fill="black"/>
<path d="M244.282 312.169H226.276V330.174H244.282V312.169Z" fill="black"/>
<path d="M244.282 382.758V365.946H258.709V348.06H226.276V382.758H244.282Z" fill="black"/>
<path d="M154.375 312.646H136.37V346.867H154.375V312.646Z" fill="black"/>
<path d="M172.38 382.758V364.753H189.908V382.758H207.913V364.753H190.266V346.748H154.375V382.758H172.38Z" fill="black"/>
<path d="M136.251 241.102H100.24V259.107H136.251V241.102Z" fill="black"/>
</svg>
