<svg width="320" height="418" viewBox="0 0 320 418" fill="none" xmlns="http://www.w3.org/2000/svg">
<rect y="119" width="180.584" height="180.584" rx="15.5409" fill="black"/>
<path d="M9.95312 137.485C9.95312 132.773 13.7728 128.953 18.4846 128.953H162.153C166.835 128.953 170.63 132.749 170.63 137.43V281.099C170.63 285.811 166.81 289.631 162.098 289.631H18.4846C13.7728 289.631 9.95312 285.811 9.95312 281.099V137.485Z" fill="white"/>
<path d="M68.315 143.884H24.8833V187.315H68.315V143.884ZM58.0838 177.084H35.1145V154.047H58.0838V177.084Z" fill="black"/>
<path d="M51.7151 160.484H41.4839V170.715H51.7151V160.484Z" fill="black"/>
<path d="M155.585 143.884H112.154V187.315H155.585V143.884ZM145.49 177.084H122.453V154.047H145.49V177.084Z" fill="black"/>
<path d="M139.053 160.484H128.822V170.715H139.053V160.484Z" fill="black"/>
<path d="M68.315 231.221H24.8833V274.653H68.315V231.221ZM58.0838 264.422H35.1145V241.453H58.0838V264.422Z" fill="black"/>
<path d="M51.7151 247.822H41.4839V258.053H51.7151V247.822Z" fill="black"/>
<path d="M45.3464 194.159H35.1152V204.39H45.3464V194.159Z" fill="black"/>
<path d="M55.3062 214.621V224.785H65.4696V214.621H55.4417V204.39H45.2783V214.621H55.3062Z" fill="black"/>
<path d="M106.665 163.533H96.4341V173.764H106.665V163.533Z" fill="black"/>
<path d="M86.2029 154.047H75.9717V173.696H86.2029V154.047Z" fill="black"/>
<path d="M96.4338 143.884H86.2026V154.115H96.4338V143.884Z" fill="black"/>
<path d="M96.434 173.764H86.2029V183.928H75.9717V194.159H96.434V173.764Z" fill="black"/>
<path d="M86.2029 224.785V234.813H96.434V244.773H116.829V234.542H96.434V224.649H86.2029V204.39H75.9717V224.785H86.2029Z" fill="black"/>
<path d="M106.665 194.159H96.4341V214.621H106.665V194.159Z" fill="black"/>
<path d="M127.06 224.649H155.653V204.187H145.49V194.227H126.857V204.458H116.896V214.689H127.128V224.649H127.06ZM127.06 204.39H145.49V214.35H127.128L127.06 204.39Z" fill="black"/>
<path d="M155.72 234.542H145.489V255.004H155.72V234.542Z" fill="black"/>
<path d="M116.829 214.621H106.598V224.852H116.829V214.621Z" fill="black"/>
<path d="M127.06 244.773H116.829V255.004H127.06V244.773Z" fill="black"/>
<path d="M137.291 234.542H127.06V244.773H137.291V234.542Z" fill="black"/>
<path d="M137.291 274.653V265.1H145.49V254.936H127.06V274.653H137.291Z" fill="black"/>
<path d="M86.2029 234.812H75.9717V254.259H86.2029V234.812Z" fill="black"/>
<path d="M96.4338 274.654V264.422H106.394V274.654H116.625V264.422H106.597V254.191H86.2026V274.654H96.4338Z" fill="black"/>
<path d="M75.9047 194.159H55.4424V204.39H75.9047V194.159Z" fill="black"/>
<path d="M180.132 145.843H308.697C314.94 145.843 320 150.904 320 157.146V198.205C320 204.447 314.94 209.507 308.697 209.507H180.132V145.843Z" fill="black"/>
<path d="M204.615 203.544C200.047 203.544 196.749 202.406 194.721 200.132C192.712 197.857 191.708 194.237 191.708 189.271V184.381H201.601V190.636C201.601 191.792 201.772 192.702 202.113 193.365C202.473 194.01 203.089 194.332 203.961 194.332C204.871 194.332 205.496 194.067 205.838 193.536C206.198 193.005 206.378 192.133 206.378 190.92C206.378 189.385 206.226 188.106 205.923 187.082C205.62 186.04 205.089 185.054 204.331 184.125C203.592 183.178 202.559 182.078 201.232 180.827L196.74 176.563C193.385 173.397 191.708 169.777 191.708 165.702C191.708 161.438 192.693 158.187 194.664 155.95C196.654 153.714 199.526 152.596 203.279 152.596C207.866 152.596 211.116 153.818 213.031 156.263C214.964 158.708 215.93 162.423 215.93 167.408H205.752V163.968C205.752 163.286 205.553 162.755 205.155 162.376C204.776 161.997 204.255 161.807 203.592 161.807C202.796 161.807 202.208 162.035 201.829 162.489C201.469 162.925 201.289 163.494 201.289 164.195C201.289 164.897 201.478 165.655 201.857 166.47C202.236 167.285 202.985 168.223 204.103 169.284L209.875 174.828C211.031 175.928 212.092 177.093 213.059 178.325C214.026 179.538 214.803 180.96 215.39 182.59C215.978 184.201 216.272 186.172 216.272 188.504C216.272 193.204 215.4 196.891 213.656 199.563C211.931 202.217 208.918 203.544 204.615 203.544Z" fill="white"/>
<path d="M233.612 203.544C229.992 203.544 227.073 202.416 224.855 200.16C222.657 197.905 221.558 194.749 221.558 190.693V167.607C221.558 162.755 222.515 159.04 224.429 156.462C226.362 153.884 229.499 152.596 233.84 152.596C236.209 152.596 238.313 153.032 240.151 153.903C242.009 154.775 243.468 156.083 244.53 157.827C245.591 159.552 246.122 161.731 246.122 164.366V173.009H236.171V165.617C236.171 164.12 235.981 163.115 235.602 162.603C235.223 162.073 234.636 161.807 233.84 161.807C232.911 161.807 232.285 162.148 231.963 162.831C231.641 163.494 231.48 164.385 231.48 165.503V190.551C231.48 191.934 231.679 192.91 232.077 193.479C232.494 194.048 233.081 194.332 233.84 194.332C234.693 194.332 235.29 193.981 235.631 193.28C235.991 192.579 236.171 191.669 236.171 190.551V181.538H246.235V191.006C246.235 195.403 245.127 198.597 242.909 200.587C240.691 202.558 237.592 203.544 233.612 203.544Z" fill="white"/>
<path d="M250.555 203.089L255.388 153.05H272.361L277.109 203.089H267.641L266.931 195.014H260.903L260.278 203.089H250.555ZM261.614 187.025H266.163L263.974 161.58H263.519L261.614 187.025Z" fill="white"/>
<path d="M282.508 203.089V153.05H292.8L297.406 177.018V153.05H307.073V203.089H297.292L292.289 178.07V203.089H282.508Z" fill="white"/>
<path d="M180.132 209.507H259.503C265.745 209.507 270.805 214.568 270.805 220.81V261.869C270.805 268.111 265.745 273.171 259.503 273.171H180.132V209.507Z" fill="black"/>
<path d="M191.708 267.021V216.983H206.946L211.154 247.489L215.333 216.983H230.714V267.021H221.56V230.971L215.817 267.021H206.833L200.748 230.971V267.021H191.708Z" fill="white"/>
<path d="M237.479 267.021V216.983H257.494V226.649H247.657V236.401H257.096V245.812H247.657V257.269H258.148V267.021H237.479Z" fill="white"/>
</svg>
