<svg width="320" height="418" viewBox="0 0 320 418" fill="none" xmlns="http://www.w3.org/2000/svg">
<g clip-path="url(#clip0_57_7365)">
<path d="M0 24C0 10.7452 10.7452 0 24 0H296C309.255 0 320 10.7452 320 24V394C320 407.255 309.255 418 296 418H24C10.7452 418 0 407.255 0 394V24Z" fill="black"/>
<path d="M14.0001 23.721C14.0004 18.3527 18.3528 14.0003 23.7211 14L295.91 14C301.279 14 305.631 18.3526 305.631 23.721L305.631 295.91C305.631 301.279 301.279 305.631 295.91 305.631L49.2625 305.631L14 339.351L14.0001 23.721Z" fill="white"/>
<path d="M122.992 48.6318H48.6313V122.992H122.992V48.6318ZM105.475 105.475H66.1484V66.0328H105.475V105.475Z" fill="black"/>
<path d="M94.5702 77.0535H77.0532V94.5705H94.5702V77.0535Z" fill="black"/>
<path d="M272.408 48.6318H198.048V122.992H272.408V48.6318ZM255.123 105.475H215.681V66.0328H255.123V105.475Z" fill="black"/>
<path d="M244.102 77.0535H226.585V94.5705H244.102V77.0535Z" fill="black"/>
<path d="M122.992 198.164H48.6313V272.525H122.992V198.164ZM105.475 255.008H66.1484V215.681H105.475V255.008Z" fill="black"/>
<path d="M94.5702 226.586H77.0532V244.103H94.5702V226.586Z" fill="black"/>
<path d="M83.6654 134.709H66.1484V152.226H83.6654V134.709Z" fill="black"/>
<path d="M100.719 169.743V187.144H118.12V169.743H100.951V152.226H83.5498V169.743H100.719Z" fill="black"/>
<path d="M188.652 82.2738H171.135V99.7908H188.652V82.2738Z" fill="black"/>
<path d="M153.617 66.0328H136.1V99.6748H153.617V66.0328Z" fill="black"/>
<path d="M171.134 48.6318H153.617V66.1488H171.134V48.6318Z" fill="black"/>
<path d="M171.134 99.7906H153.617V117.192H136.1V134.709H171.134V99.7906Z" fill="black"/>
<path d="M153.617 187.144V204.313H171.134V221.366H206.052V203.849H171.134V186.912H153.617V152.226H136.1V187.144H153.617Z" fill="black"/>
<path d="M188.652 134.709H171.135V169.743H188.652V134.709Z" fill="black"/>
<path d="M223.569 186.912H272.524V151.878H255.123V134.825H223.221V152.342H206.168V169.859H223.685V186.912H223.569ZM223.569 152.226H255.123V169.279H223.685L223.569 152.226Z" fill="black"/>
<path d="M272.641 203.849H255.124V238.883H272.641V203.849Z" fill="black"/>
<path d="M206.053 169.743H188.536V187.26H206.053V169.743Z" fill="black"/>
<path d="M223.569 221.366H206.052V238.883H223.569V221.366Z" fill="black"/>
<path d="M241.087 203.849H223.57V221.366H241.087V203.849Z" fill="black"/>
<path d="M241.087 272.525V256.168H255.124V238.767H223.57V272.525H241.087Z" fill="black"/>
<path d="M153.617 204.313H136.1V237.607H153.617V204.313Z" fill="black"/>
<path d="M171.134 272.525V255.008H188.187V272.525H205.704V255.008H188.535V237.491H153.617V272.525H171.134Z" fill="black"/>
<path d="M135.985 134.709H100.951V152.226H135.985V134.709Z" fill="black"/>
<path d="M75.7979 349.716C75.5715 347.893 74.653 346.477 73.0425 345.47C71.4321 344.462 69.4568 343.958 67.1166 343.958C65.4055 343.958 63.9083 344.222 62.6249 344.75C61.3542 345.278 60.3603 346.003 59.6431 346.927C58.9385 347.851 58.5862 348.9 58.5862 350.076C58.5862 351.059 58.8316 351.905 59.3223 352.613C59.8255 353.308 60.4672 353.89 61.2473 354.358C62.0273 354.814 62.8451 355.192 63.7007 355.491C64.5562 355.779 65.3426 356.013 66.0597 356.193L69.9852 357.201C70.9917 357.453 72.1115 357.801 73.3445 358.244C74.5901 358.688 75.779 359.294 76.9114 360.062C78.0563 360.817 78.9999 361.789 79.7423 362.976C80.4846 364.164 80.8557 365.621 80.8557 367.348C80.8557 369.34 80.3084 371.139 79.2138 372.746C78.1318 374.354 76.5465 375.631 74.458 376.579C72.382 377.526 69.8594 378 66.8901 378C64.1222 378 61.7254 377.574 59.6997 376.723C57.6867 375.871 56.1014 374.683 54.9439 373.16C53.7989 371.637 53.151 369.867 53 367.852H57.8313C57.9572 369.244 58.4478 370.395 59.3034 371.307C60.1715 372.206 61.2661 372.878 62.5872 373.322C63.9209 373.754 65.3552 373.97 66.8901 373.97C68.6767 373.97 70.2809 373.694 71.7026 373.142C73.1243 372.578 74.2504 371.799 75.0808 370.803C75.9112 369.795 76.3263 368.62 76.3263 367.277C76.3263 366.053 75.9678 365.057 75.2506 364.29C74.5335 363.522 73.5898 362.898 72.4198 362.419C71.2497 361.939 69.9852 361.519 68.6264 361.159L63.8705 359.864C60.8509 359.036 58.4604 357.854 56.699 356.319C54.9376 354.784 54.0569 352.775 54.0569 350.292C54.0569 348.229 54.6419 346.429 55.812 344.894C56.9947 343.347 58.58 342.147 60.5679 341.295C62.5683 340.432 64.8016 340 67.2676 340C69.7587 340 71.9731 340.426 73.9107 341.277C75.8482 342.117 77.3832 343.269 78.5156 344.732C79.6605 346.195 80.2644 347.857 80.3273 349.716H75.7979Z" fill="white"/>
<path d="M119.653 352.019H114.972C114.696 350.735 114.211 349.608 113.519 348.636C112.84 347.665 112.009 346.849 111.028 346.189C110.059 345.518 108.984 345.014 107.801 344.678C106.618 344.342 105.385 344.174 104.102 344.174C101.762 344.174 99.6417 344.738 97.7419 345.866C95.8546 346.993 94.3511 348.654 93.2313 350.849C92.1242 353.045 91.5706 355.737 91.5706 358.928C91.5706 362.119 92.1242 364.812 93.2313 367.007C94.3511 369.202 95.8546 370.863 97.7419 371.991C99.6417 373.118 101.762 373.682 104.102 373.682C105.385 373.682 106.618 373.514 107.801 373.178C108.984 372.842 110.059 372.344 111.028 371.685C112.009 371.013 112.84 370.191 113.519 369.22C114.211 368.236 114.696 367.109 114.972 365.837H119.653C119.3 367.72 118.659 369.406 117.728 370.893C116.797 372.38 115.639 373.646 114.255 374.689C112.871 375.721 111.317 376.507 109.594 377.046C107.883 377.586 106.052 377.856 104.102 377.856C100.805 377.856 97.874 377.088 95.3073 375.553C92.7407 374.018 90.7213 371.835 89.2493 369.004C87.7772 366.173 87.0412 362.814 87.0412 358.928C87.0412 355.042 87.7772 351.683 89.2493 348.852C90.7213 346.021 92.7407 343.838 95.3073 342.303C97.874 340.768 100.805 340 104.102 340C106.052 340 107.883 340.27 109.594 340.81C111.317 341.349 112.871 342.141 114.255 343.185C115.639 344.216 116.797 345.476 117.728 346.963C118.659 348.438 119.3 350.124 119.653 352.019Z" fill="white"/>
<path d="M128.801 377.352H123.894L138.086 340.504H142.918L157.11 377.352H152.203L140.653 346.333H140.351L128.801 377.352ZM130.613 362.958H150.391V366.917H130.613V362.958Z" fill="white"/>
<path d="M193.779 340.504V377.352H189.25L168.188 348.42H167.811V377.352H163.13V340.504H167.66L188.797 369.508H189.174V340.504H193.779Z" fill="white"/>
<path d="M218.091 340.504H223.678L236.813 371.091H237.266L250.401 340.504H255.987V377.352H251.609V349.356H251.231L239.153 377.352H234.926L222.847 349.356H222.47V377.352H218.091V340.504Z" fill="white"/>
<path d="M265.372 377.352V340.504H288.698V344.462H270.052V356.913H287.49V360.871H270.052V373.394H289V377.352H265.372Z" fill="white"/>
</g>
<defs>
<clipPath id="clip0_57_7365">
<rect width="320" height="418" fill="white"/>
</clipPath>
</defs>
</svg>
