<?xml version="1.0" encoding="UTF-8"?>
<svg id="Capa_2" xmlns="http://www.w3.org/2000/svg" viewBox="0 0 98.461 120">
  <defs>
    <style>
      .cls-1, .cls-2 {
        fill: #fff;
      }

      .cls-2 {
        font-family: Inter-SemiBold, Inter;
        font-size: 9.231px;
        font-variation-settings: 'opsz' 14, 'wght' 600;
        font-weight: 600;
      }

      .cls-3 {
        letter-spacing: .01em;
      }
    </style>
  </defs>
  <g id="Capa_1-2" data-name="Capa_1">
    <g>
      <path d="M93.496,98.461c0-2.742,2.223-4.965,4.965-4.965V4.615c0-2.549-2.066-4.615-4.615-4.615H4.615C2.066,0,0,2.066,0,4.615v88.881c2.742,0,4.965,2.223,4.965,4.965s-2.223,4.965-4.965,4.965v11.958c0,2.549,2.066,4.615,4.615,4.615h89.231c2.549,0,4.615-2.066,4.615-4.615v-11.958c-2.742,0-4.965-2.223-4.965-4.965ZM8.457,98.923h-1.846c-.255,0-.462-.207-.462-.462s.207-.462.462-.462h1.846c.255,0,.462.207.462.462s-.207.462-.462.462ZM15.57,98.923h-3.556c-.255,0-.462-.207-.462-.462s.207-.462.462-.462h3.556c.255,0,.462.207.462.462s-.207.462-.462.462ZM22.683,98.923h-3.557c-.255,0-.462-.207-.462-.462s.207-.462.462-.462h3.557c.255,0,.462.207.462.462s-.207.462-.462.462ZM29.796,98.923h-3.556c-.255,0-.462-.207-.462-.462s.207-.462.462-.462h3.556c.255,0,.462.207.462.462s-.207.462-.462.462ZM36.909,98.923h-3.556c-.255,0-.462-.207-.462-.462s.207-.462.462-.462h3.556c.255,0,.462.207.462.462s-.207.462-.462.462ZM44.022,98.923h-3.556c-.255,0-.462-.207-.462-.462s.207-.462.462-.462h3.556c.255,0,.462.207.462.462s-.207.462-.462.462ZM51.135,98.923h-3.556c-.255,0-.462-.207-.462-.462s.207-.462.462-.462h3.556c.255,0,.462.207.462.462s-.207.462-.462.462ZM58.248,98.923h-3.557c-.255,0-.462-.207-.462-.462s.207-.462.462-.462h3.557c.255,0,.462.207.462.462s-.207.462-.462.462ZM65.361,98.923h-3.556c-.255,0-.462-.207-.462-.462s.207-.462.462-.462h3.556c.255,0,.462.207.462.462s-.207.462-.462.462ZM72.474,98.923h-3.556c-.255,0-.462-.207-.462-.462s.207-.462.462-.462h3.556c.255,0,.462.207.462.462s-.207.462-.462.462ZM79.587,98.923h-3.556c-.255,0-.462-.207-.462-.462s.207-.462.462-.462h3.556c.255,0,.462.207.462.462s-.207.462-.462.462ZM86.7,98.923h-3.556c-.255,0-.462-.207-.462-.462s.207-.462.462-.462h3.556c.255,0,.462.207.462.462s-.207.462-.462.462ZM92.103,98.923h-1.846c-.255,0-.462-.207-.462-.462s.207-.462.462-.462h1.846c.255,0,.462.207.462.462s-.207.462-.462.462Z"/>
      <g id="qr-frame-text">
        <text class="cls-2" transform="translate(28.532 112.583)"><tspan x="0" y="0">S</tspan><tspan class="cls-3" x="6.004" y="0">c</tspan><tspan x="11.471" y="0">an Me!</tspan></text>
      </g>
      <rect class="cls-1" x="12.308" y="11.692" width="73.846" height="73.846" rx="3.45" ry="3.45"/>
      <g>
        <path d="M39.246,18.923h-19.723v19.723h19.723v-19.723ZM34.6,34h-10.431v-10.462h10.431v10.462Z"/>
        <path d="M31.708,26.462h-4.646v4.646h4.646v-4.646Z"/>
        <path d="M78.877,18.923h-19.723v19.723h19.723v-19.723ZM74.292,34h-10.462v-10.462h10.462v10.462Z"/>
        <path d="M71.369,26.462h-4.646v4.646h4.646v-4.646Z"/>
        <path d="M39.246,58.585h-19.723v19.723h19.723v-19.723ZM34.6,73.662h-10.431v-10.431h10.431v10.431Z"/>
        <path d="M31.708,66.123h-4.646v4.646h4.646v-4.646Z"/>
        <path d="M28.815,41.754h-4.646v4.646h4.646v-4.646Z"/>
        <path d="M33.338,51.046v4.615h4.615v-4.615h-4.554v-4.646h-4.615v4.646h4.554Z"/>
        <path d="M56.662,27.846h-4.646v4.646h4.646v-4.646Z"/>
        <path d="M47.369,23.538h-4.646v8.923h4.646v-8.923Z"/>
        <path d="M52.015,18.923h-4.646v4.646h4.646v-4.646Z"/>
        <path d="M52.015,32.492h-4.646v4.615h-4.646v4.646h9.292v-9.262Z"/>
        <path d="M47.369,55.662v4.554h4.646v4.523h9.262v-4.646h-9.262v-4.492h-4.646v-9.2h-4.646v9.262h4.646Z"/>
        <path d="M56.662,41.754h-4.646v9.292h4.646v-9.292Z"/>
        <path d="M65.923,55.6h12.985v-9.292h-4.615v-4.523h-8.462v4.646h-4.523v4.646h4.646v4.523h-.031ZM65.923,46.4h8.369v4.523h-8.338l-.031-4.523Z"/>
        <path d="M78.938,60.092h-4.646v9.292h4.646v-9.292Z"/>
        <path d="M61.277,51.046h-4.646v4.646h4.646v-4.646Z"/>
        <path d="M65.923,64.738h-4.646v4.646h4.646v-4.646Z"/>
        <path d="M70.569,60.092h-4.646v4.646h4.646v-4.646Z"/>
        <path d="M70.569,78.308v-4.338h3.723v-4.615h-8.369v8.954h4.646Z"/>
        <path d="M47.369,60.215h-4.646v8.831h4.646v-8.831Z"/>
        <path d="M52.015,78.308v-4.646h4.523v4.646h4.646v-4.646h-4.554v-4.646h-9.262v9.292h4.646Z"/>
        <path d="M42.692,41.754h-9.292v4.646h9.292v-4.646Z"/>
      </g>
    </g>
  </g>
</svg>