<svg width="320" height="418" viewBox="0 0 320 418" fill="none" xmlns="http://www.w3.org/2000/svg">
<rect x="13.1616" y="339.686" width="293.677" height="78.3138" rx="11.677" fill="black"/>
<path d="M72.8541 404.18C68.3108 404.18 65.0306 403.048 63.0135 400.786C61.0152 398.524 60.0161 394.923 60.0161 389.984V385.121H69.8566V391.342C69.8566 392.492 70.0263 393.396 70.3656 394.056C70.7238 394.697 71.3365 395.018 72.2037 395.018C73.1085 395.018 73.7307 394.754 74.07 394.226C74.4282 393.698 74.6073 392.831 74.6073 391.624C74.6073 390.097 74.4564 388.825 74.1548 387.807C73.8532 386.77 73.3253 385.79 72.5713 384.866C71.8361 383.924 70.8087 382.83 69.489 381.586L65.0212 377.344C61.6845 374.196 60.0161 370.595 60.0161 366.542C60.0161 362.301 60.9964 359.068 62.957 356.843C64.9364 354.619 67.7924 353.506 71.525 353.506C76.0871 353.506 79.3202 354.722 81.2242 357.154C83.147 359.586 84.1085 363.281 84.1085 368.239H73.9851V364.817C73.9851 364.139 73.7872 363.611 73.3913 363.234C73.0143 362.857 72.4959 362.668 71.8361 362.668C71.0443 362.668 70.4599 362.895 70.0829 363.347C69.7247 363.781 69.5456 364.346 69.5456 365.044C69.5456 365.741 69.7341 366.495 70.1111 367.306C70.4882 368.116 71.2328 369.05 72.3451 370.105L78.0854 375.619C79.2353 376.713 80.291 377.872 81.2524 379.098C82.2139 380.304 82.9868 381.718 83.5712 383.339C84.1556 384.942 84.4478 386.902 84.4478 389.221C84.4478 393.896 83.5806 397.563 81.8463 400.221C80.1308 402.86 77.1334 404.18 72.8541 404.18Z" fill="white"/>
<path d="M101.116 404.18C97.515 404.18 94.6118 403.058 92.4062 400.815C90.2194 398.571 89.126 395.432 89.126 391.398V368.437C89.126 363.611 90.078 359.916 91.982 357.352C93.9049 354.788 97.0248 353.506 101.342 353.506C103.698 353.506 105.791 353.94 107.619 354.807C109.467 355.674 110.918 356.975 111.974 358.71C113.03 360.425 113.558 362.593 113.558 365.213V373.81H103.661V366.458C103.661 364.968 103.472 363.969 103.095 363.46C102.718 362.932 102.134 362.668 101.342 362.668C100.418 362.668 99.796 363.008 99.4755 363.686C99.155 364.346 98.9948 365.232 98.9948 366.344V391.257C98.9948 392.633 99.1928 393.604 99.5886 394.169C100.003 394.735 100.588 395.018 101.342 395.018C102.19 395.018 102.784 394.669 103.123 393.971C103.481 393.274 103.661 392.369 103.661 391.257V382.293H113.671V391.709C113.671 396.083 112.568 399.259 110.362 401.239C108.157 403.199 105.074 404.18 101.116 404.18Z" fill="white"/>
<path d="M117.388 403.727L122.195 353.959H139.076L143.799 403.727H134.382L133.675 395.696H127.681L127.058 403.727H117.388ZM128.387 387.75H132.912L130.734 362.442H130.282L128.387 387.75Z" fill="white"/>
<path d="M148.59 403.727V353.959H158.826L163.407 377.797V353.959H173.022V403.727H163.294L158.317 378.843V403.727H148.59Z" fill="white"/>
<path d="M194.481 403.727V353.959H209.637L213.823 384.301L217.979 353.959H233.277V403.727H224.172V367.871L218.46 403.727H209.524L203.473 367.871V403.727H194.481Z" fill="white"/>
<path d="M239.426 403.727V353.959H259.333V363.573H249.549V373.272H258.937V382.632H249.549V394.028H259.984V403.727H239.426Z" fill="white"/>
<path d="M285.302 0C297.196 0.000147454 306.838 9.64213 306.838 21.5361V272.141C306.838 284.035 297.196 293.677 285.302 293.677H226.079L159.962 331.115L93.8472 293.677H34.6978C22.8037 293.677 13.1616 284.035 13.1616 272.141V21.5361C13.1617 9.64211 22.8037 9.09441e-05 34.6978 0H285.302Z" fill="black"/>
<rect x="30.7822" y="17.6206" width="258.435" height="258.436" rx="11.7471" fill="white"/>
<path d="M123.868 41.2032H53.3799V111.691H123.868V41.2032ZM107.263 95.0863H69.9847V57.6981H107.263V95.0863Z" fill="black"/>
<path d="M96.9261 68.1447H80.3213V84.7494H96.9261V68.1447Z" fill="black"/>
<path d="M265.504 41.2031H195.016V111.691H265.504V41.2031ZM249.119 95.0862H211.731V57.6979H249.119V95.0862Z" fill="black"/>
<path d="M238.673 68.1447H222.068V84.7494H238.673V68.1447Z" fill="black"/>
<path d="M123.868 182.949H53.3799V253.437H123.868V182.949ZM107.263 236.832H69.9847V199.554H107.263V236.832Z" fill="black"/>
<path d="M96.9261 209.89H80.3213V226.495H96.9261V209.89Z" fill="black"/>
<path d="M86.5901 122.798H69.9854V139.402H86.5901V122.798Z" fill="black"/>
<path d="M102.755 156.007V172.502H119.25V156.007H102.975V139.403H86.48V156.007H102.755Z" fill="black"/>
<path d="M186.109 73.0933H169.504V89.698H186.109V73.0933Z" fill="black"/>
<path d="M152.899 57.6979H136.294V89.5879H152.899V57.6979Z" fill="black"/>
<path d="M169.504 41.2031H152.899V57.8079H169.504V41.2031Z" fill="black"/>
<path d="M169.504 89.6979H152.899V106.193H136.294V122.797H169.504V89.6979Z" fill="black"/>
<path d="M152.899 172.502V188.777H169.504V204.942H202.604V188.337H169.504V172.282H152.899V139.403H136.294V172.502H152.899Z" fill="black"/>
<path d="M186.109 122.798H169.504V156.007H186.109V122.798Z" fill="black"/>
<path d="M219.208 172.282H265.614V139.073H249.119V122.908H218.878V139.513H202.713V156.117H219.318V172.282H219.208ZM219.208 139.403H249.119V155.567H219.318L219.208 139.403Z" fill="black"/>
<path d="M265.723 188.337H249.119V221.547H265.723V188.337Z" fill="black"/>
<path d="M202.603 156.007H185.999V172.612H202.603V156.007Z" fill="black"/>
<path d="M219.207 204.942H202.603V221.546H219.207V204.942Z" fill="black"/>
<path d="M235.813 188.337H219.208V204.942H235.813V188.337Z" fill="black"/>
<path d="M235.813 253.436V237.931H249.119V221.437H219.208V253.436H235.813Z" fill="black"/>
<path d="M152.899 188.777H136.294V220.337H152.899V188.777Z" fill="black"/>
<path d="M169.504 253.437V236.832H185.669V253.437H202.273V236.832H185.999V220.227H152.899V253.437H169.504Z" fill="black"/>
<path d="M136.184 122.798H102.975V139.402H136.184V122.798Z" fill="black"/>
</svg>
