<svg width="320" height="418" viewBox="0 0 320 418" fill="currentColor" xmlns="http://www.w3.org/2000/svg">
<g clip-path="url(#clip0_57_7967)">
<path d="M296 413V418H24V413H296ZM315 394V24C315 13.5066 306.493 5 296 5H24C13.5066 5 5 13.5066 5 24V394C5 404.493 13.5066 413 24 413V418L23.3809 417.992C10.4122 417.664 0 407.048 0 394V24C0 10.7452 10.7452 5.15406e-07 24 0H296C309.255 0 320 10.7452 320 24V394C320 407.048 309.588 417.664 296.619 417.992L296 418V413C306.493 413 315 404.493 315 394Z" fill="currentColor"/>
<path d="M0 327H320V393C320 406.807 308.807 418 295 418H25C11.1929 418 0 406.807 0 393V327Z" fill="currentColor"/>
<text id="qr-frame-text" x="160" y="385" font-size="40px" font-weight="600" font-family="Inter, sans-serif" fill="white" text-anchor="middle">Scan Me!</text>
</g>
<defs>
<clipPath id="clip0_57_7967">
<rect width="320" height="418" fill="white"/>
</clipPath>
</defs>
</svg>
