<?xml version="1.0" encoding="UTF-8"?>
<svg id="Capa_2" xmlns="http://www.w3.org/2000/svg" viewBox="0 0 98.462 120">
  <defs>
    <style>
      .cls-1, .cls-2 {
        fill: #fff;
      }

      .cls-3 {
        stroke: #fff;
        stroke-linecap: round;
        stroke-linejoin: round;
        stroke-width: .521px;
      }

      .cls-2 {
        font-family: Inter-SemiBold, Inter;
        font-size: 9.231px;
        font-variation-settings: 'opsz' 14, 'wght' 600;
        font-weight: 600;
      }

      .cls-4 {
        letter-spacing: .01em;
      }
    </style>
  </defs>
  <g id="Capa_1-2" data-name="Capa_1">
    <g>
      <path d="M79.026,110.107h0c0-5.464,4.351-9.893,9.718-9.893h0c5.367,0,9.718-4.429,9.718-9.893V9.893c0-5.464-4.351-9.893-9.718-9.893H9.718C4.351,0,0,4.429,0,9.893v100.214c0,5.464,4.351,9.893,9.718,9.893h59.591c5.367,0,9.718-4.429,9.718-9.893Z"/>
      <rect class="cls-1" x="6.26" y="7.187" width="85.941" height="85.941" rx="3.853" ry="3.853"/>
      <g id="qr-frame-text">
        <text class="cls-2" transform="translate(18.654 111.148)"><tspan x="0" y="0">S</tspan><tspan class="cls-4" x="6.004" y="0">c</tspan><tspan x="11.471" y="0">an Me!</tspan></text>
      </g>
      <g>
        <path d="M35.958,10.687H9.74v26.218h26.218V10.687ZM29.782,30.729h-13.866v-13.907h13.866v13.907Z"/>
        <path d="M25.937,20.708h-6.176v6.176h6.176v-6.176Z"/>
        <path d="M88.639,10.687h-26.218v26.218h26.218V10.687ZM82.545,30.729h-13.907v-13.907h13.907v13.907Z"/>
        <path d="M78.659,20.708h-6.176v6.176h6.176v-6.176Z"/>
        <path d="M35.958,63.409H9.74v26.218h26.218v-26.218ZM29.782,83.451h-13.866v-13.866h13.866v13.866Z"/>
        <path d="M25.937,73.43h-6.176v6.176h6.176v-6.176Z"/>
        <path d="M22.093,41.036h-6.176v6.176h6.176v-6.176Z"/>
        <path d="M28.105,53.388v6.135h6.135v-6.135h-6.053v-6.176h-6.135v6.176h6.053Z"/>
        <path d="M59.109,22.549h-6.176v6.176h6.176v-6.176Z"/>
        <path d="M46.756,16.822h-6.176v11.861h6.176v-11.861Z"/>
        <path d="M52.932,10.687h-6.176v6.176h6.176v-6.176Z"/>
        <path d="M52.932,28.725h-6.176v6.135h-6.176v6.176h12.352v-12.311Z"/>
        <path d="M46.756,59.524v6.053h6.176v6.013h12.311v-6.176h-12.311v-5.972h-6.176v-12.23h-6.176v12.311h6.176Z"/>
        <path d="M59.109,41.036h-6.176v12.352h6.176v-12.352Z"/>
        <path d="M71.42,59.442h17.26v-12.352h-6.135v-6.013h-11.248v6.176h-6.013v6.176h6.176v6.013h-.041ZM71.42,47.212h11.125v6.013h-11.084l-.041-6.013Z"/>
        <path d="M88.721,65.414h-6.176v12.352h6.176v-12.352Z"/>
        <path d="M65.244,53.388h-6.176v6.176h6.176v-6.176Z"/>
        <path d="M71.42,71.59h-6.176v6.176h6.176v-6.176Z"/>
        <path d="M77.596,65.414h-6.176v6.176h6.176v-6.176Z"/>
        <path d="M77.596,89.627v-5.767h4.949v-6.135h-11.125v11.902h6.176Z"/>
        <path d="M46.756,65.577h-6.176v11.739h6.176v-11.739Z"/>
        <path d="M52.932,89.627v-6.176h6.013v6.176h6.176v-6.176h-6.053v-6.176h-12.311v12.352h6.176Z"/>
        <path d="M40.539,41.036h-12.352v6.176h12.352v-6.176Z"/>
      </g>
      <circle cx="89.298" cy="111.146" r="7.974"/>
      <line class="cls-3" x1="93.484" y1="111.146" x2="85.112" y2="111.146"/>
      <g>
        <polyline class="cls-3" points="85.988 109.565 85.988 107.653 87.9 107.653"/>
        <polyline class="cls-3" points="92.608 109.565 92.608 107.653 90.697 107.653"/>
        <polyline class="cls-3" points="92.608 112.727 92.608 114.639 90.697 114.639"/>
        <polyline class="cls-3" points="85.988 112.727 85.988 114.639 87.9 114.639"/>
      </g>
    </g>
  </g>
</svg>