<svg width="320" height="418" viewBox="0 0 320 418" fill="currentColor" xmlns="http://www.w3.org/2000/svg">
<g clip-path="url(#clip0_57_7967)">
<path d="M296 413V418H24V413H296ZM315 394V24C315 13.5066 306.493 5 296 5H24C13.5066 5 5 13.5066 5 24V394C5 404.493 13.5066 413 24 413V418L23.3809 417.992C10.4122 417.664 0 407.048 0 394V24C0 10.7452 10.7452 5.15406e-07 24 0H296C309.255 0 320 10.7452 320 24V394C320 407.048 309.588 417.664 296.619 417.992L296 418V413C306.493 413 315 404.493 315 394Z" fill="currentColor"/>
<path d="M0 327H320V393C320 406.807 308.807 418 295 418H25C11.1929 418 0 406.807 0 393V327Z" fill="currentColor"/>
<path d="M269.279 385.244C268.87 385.244 268.477 385.409 268.188 385.703C267.899 385.997 267.737 386.395 267.737 386.811C267.737 387.226 267.899 387.624 268.188 387.918C268.477 388.212 268.87 388.377 269.279 388.377H275.447C275.856 388.377 276.249 388.212 276.538 387.918C276.827 387.624 276.99 387.226 276.99 386.811C276.99 386.395 276.827 385.997 276.538 385.703C276.249 385.409 275.856 385.244 275.447 385.244H269.279ZM263.11 347.654C261.474 347.654 259.905 348.314 258.748 349.489C257.591 350.664 256.941 352.258 256.941 353.919V391.509C256.941 393.171 257.591 394.765 258.748 395.94C259.905 397.114 261.474 397.775 263.11 397.775H281.616C283.252 397.775 284.821 397.114 285.978 395.94C287.135 394.765 287.785 393.171 287.785 391.509V353.919C287.785 352.258 287.135 350.664 285.978 349.489C284.821 348.314 283.252 347.654 281.616 347.654H263.11ZM260.026 353.919C260.026 353.088 260.351 352.292 260.929 351.704C261.508 351.117 262.292 350.787 263.11 350.787H281.616C282.434 350.787 283.219 351.117 283.797 351.704C284.375 352.292 284.7 353.088 284.7 353.919V391.509C284.7 392.34 284.375 393.137 283.797 393.725C283.219 394.312 282.434 394.642 281.616 394.642H263.11C262.292 394.642 261.508 394.312 260.929 393.725C260.351 393.137 260.026 392.34 260.026 391.509V353.919Z" fill="white"/>
<text id="qr-frame-text" x="150" y="385" font-size="40px" font-weight="600" font-family="Inter, sans-serif" fill="white" text-anchor="middle">Scan Me!</text>
</g>
<defs>
<clipPath id="clip0_57_7967">
<rect width="320" height="418" fill="white"/>
</clipPath>
</defs>
</svg>
