<svg width="320" height="418" viewBox="0 0 320 418" fill="none" xmlns="http://www.w3.org/2000/svg">
<path d="M4 108.437V60.2184C4 33.5882 25.5882 12 52.2184 12H100.437C102.003 12.0002 103.273 13.2699 103.273 14.8362C103.273 16.4025 102.003 17.6722 100.437 17.6724H52.2184C28.7211 17.6724 9.6724 36.7211 9.6724 60.2184V108.437C9.67215 110.003 8.40253 111.273 6.8362 111.273C5.26987 111.273 4.00025 110.003 4 108.437Z" fill="black"/>
<path d="M316 227.563L316 275.782C316 302.412 294.412 324 267.782 324L219.563 324C217.997 324 216.727 322.73 216.727 321.164C216.727 319.597 217.997 318.328 219.563 318.328L267.782 318.328C291.279 318.328 310.328 299.279 310.328 275.782L310.328 227.563C310.328 225.997 311.597 224.727 313.164 224.727C314.73 224.727 316 225.997 316 227.563Z" fill="black"/>
<path d="M219.563 12L267.782 12C294.412 12 316 33.5882 316 60.2184L316 108.437C316 110.003 314.73 111.273 313.164 111.273C311.597 111.273 310.328 110.003 310.328 108.437L310.328 60.2184C310.328 36.7211 291.279 17.6724 267.782 17.6724L219.563 17.6724C217.997 17.6722 216.727 16.4025 216.727 14.8362C216.727 13.2699 217.997 12.0002 219.563 12Z" fill="black"/>
<path d="M100.437 324L52.2184 324C25.5882 324 4 302.412 4.00001 275.782L4.00001 227.563C4.00026 225.997 5.26989 224.727 6.83621 224.727C8.40254 224.727 9.67217 225.997 9.67242 227.563L9.67241 275.782C9.67241 299.279 28.7211 318.328 52.2184 318.328L100.437 318.328C102.003 318.328 103.273 319.597 103.273 321.164C103.273 322.73 102.003 324 100.437 324Z" fill="black"/>
<rect x="32.1807" y="40.1807" width="255.639" height="255.639" rx="22.1419" fill="black"/>
<rect x="46.271" y="54.271" width="227.458" height="227.458" rx="12.0774" fill="white"/>
<path d="M128.889 75.4065H67.4062V136.89H128.889V75.4065ZM114.406 122.406H81.8898V89.7941H114.406V122.406Z" fill="black"/>
<path d="M105.39 98.9064H90.9067V113.39H105.39V98.9064Z" fill="black"/>
<path d="M252.431 75.4066H190.948V136.89H252.431V75.4066ZM238.139 122.406H205.527V89.7942H238.139V122.406Z" fill="black"/>
<path d="M229.027 98.9064H214.544V113.39H229.027V98.9064Z" fill="black"/>
<path d="M128.889 199.044H67.4062V260.527H128.889V199.044ZM114.406 246.043H81.8898V213.527H114.406V246.043Z" fill="black"/>
<path d="M105.39 222.544H90.9067V237.027H105.39V222.544Z" fill="black"/>
<path d="M96.3736 146.577H81.8901V161.061H96.3736V146.577Z" fill="black"/>
<path d="M110.473 175.544V189.932H124.861V175.544H110.665V161.061H96.2773V175.544H110.473Z" fill="black"/>
<path d="M183.179 103.223H168.695V117.706H183.179V103.223Z" fill="black"/>
<path d="M154.212 89.7942H139.729V117.61H154.212V89.7942Z" fill="black"/>
<path d="M168.695 75.4066H154.211V89.8901H168.695V75.4066Z" fill="black"/>
<path d="M168.696 117.706H154.212V132.094H139.729V146.577H168.696V117.706Z" fill="black"/>
<path d="M154.212 189.932V204.128H168.696V218.228H197.567V203.744H168.696V189.74H154.212V161.061H139.729V189.932H154.212Z" fill="black"/>
<path d="M183.179 146.577H168.695V175.544H183.179V146.577Z" fill="black"/>
<path d="M212.049 189.74H252.526V160.773H238.139V146.673H211.761V161.157H197.662V175.64H212.145V189.74H212.049ZM212.049 161.061H238.139V175.161H212.145L212.049 161.061Z" fill="black"/>
<path d="M252.623 203.744H238.139V232.711H252.623V203.744Z" fill="black"/>
<path d="M197.567 175.544H183.083V190.028H197.567V175.544Z" fill="black"/>
<path d="M212.049 218.227H197.566V232.711H212.049V218.227Z" fill="black"/>
<path d="M226.533 203.744H212.049V218.227H226.533V203.744Z" fill="black"/>
<path d="M226.533 260.527V247.003H238.139V232.615H212.049V260.527H226.533Z" fill="black"/>
<path d="M154.212 204.127H139.729V231.656H154.212V204.127Z" fill="black"/>
<path d="M168.695 260.527V246.044H182.795V260.527H197.278V246.044H183.083V231.56H154.211V260.527H168.695Z" fill="black"/>
<path d="M139.633 146.577H110.666V161.061H139.633V146.577Z" fill="black"/>
<path d="M52.7576 401.484C51.8215 401.484 51.0539 401.221 50.4548 400.697C49.8931 400.21 49.6123 399.668 49.6123 399.068C49.6123 398.394 49.7059 397.889 49.8931 397.552C50.1178 397.178 50.5858 396.915 51.2973 396.766C53.0572 396.354 54.8732 395.867 56.7454 395.305C58.655 394.706 60.4336 394.088 62.0811 393.452C63.7287 392.778 65.0579 392.123 66.0689 391.486C67.1174 390.85 67.6416 390.288 67.6416 389.801C67.6416 389.352 67.2297 388.921 66.4059 388.509C65.5822 388.06 64.5337 387.573 63.2606 387.049C61.9875 386.525 60.6208 385.944 59.1605 385.308C57.7002 384.671 56.3335 383.941 55.0604 383.117C53.7873 382.294 52.7389 381.357 51.9151 380.309C51.0913 379.223 50.6795 377.987 50.6795 376.602C50.6795 374.43 51.2037 372.408 52.2521 370.536C53.338 368.627 54.7421 366.867 56.4646 365.257C58.187 363.646 60.0779 362.167 62.1373 360.819C64.2342 359.434 66.2936 358.217 68.3156 357.169C70.375 356.083 72.2097 355.128 73.8198 354.304C74.344 354.005 74.8495 353.799 75.3363 353.686C75.8231 353.574 76.2537 353.518 76.6281 353.518C77.714 353.518 78.5003 353.761 78.9871 354.248C79.4739 354.735 79.7173 355.296 79.7173 355.933C79.7173 356.457 79.4364 357.075 78.8748 357.786C78.3131 358.46 77.5081 359.06 76.4596 359.584C75.4112 360.108 74.1568 360.37 72.6965 360.37H72.2472C70.9741 361.044 69.5887 361.849 68.0909 362.785C66.5931 363.721 65.1141 364.751 63.6538 365.874C62.1935 366.998 60.8455 368.158 59.6098 369.357C58.4116 370.517 57.4381 371.641 56.6892 372.727C55.9778 373.812 55.6221 374.805 55.6221 375.703C55.6221 376.789 56.0339 377.763 56.8577 378.624C57.6815 379.485 58.7299 380.253 60.003 380.927C61.3135 381.601 62.6803 382.256 64.1031 382.893C65.5634 383.529 66.9301 384.184 68.2032 384.858C69.5138 385.495 70.5809 386.206 71.4047 386.993C72.2285 387.742 72.6403 388.622 72.6403 389.633C72.6403 390.793 72.2285 391.898 71.4047 392.946C70.6184 393.995 69.5699 394.968 68.2594 395.867C66.9489 396.728 65.5073 397.515 63.9346 398.226C62.3994 398.9 60.8829 399.48 59.3852 399.967C57.8874 400.454 56.5394 400.828 55.3412 401.09C54.1805 401.353 53.3193 401.484 52.7576 401.484Z" fill="black"/>
<path d="M100.189 391.318C100.601 391.318 100.994 391.486 101.369 391.823C101.743 392.16 101.93 392.703 101.93 393.452C101.93 394.051 101.481 394.762 100.582 395.586C99.6838 396.372 98.523 397.14 97.1002 397.889C95.7148 398.638 94.217 399.256 92.6069 399.742C90.9968 400.267 89.4803 400.529 88.0575 400.529C86.0355 400.529 84.1258 400.005 82.3285 398.956C80.5687 397.908 79.1271 396.391 78.0038 394.407C76.8804 392.385 76.3188 389.932 76.3188 387.049C76.3188 384.503 76.7868 381.957 77.7229 379.41C78.659 376.864 79.8947 374.412 81.4299 372.053C83.0025 369.694 84.7249 367.503 86.5971 365.481C88.5068 363.459 90.4164 361.699 92.3261 360.202C94.2357 358.704 96.0143 357.543 97.6618 356.719C99.3468 355.858 100.732 355.428 101.818 355.428C102.567 355.428 103.166 355.708 103.615 356.27C104.102 356.794 104.346 357.375 104.346 358.011C104.346 358.386 104.233 358.76 104.009 359.134C103.821 359.509 103.484 359.808 102.998 360.033C100.564 361.231 98.0924 362.767 95.5837 364.639C93.0749 366.511 90.7534 368.645 88.6191 371.042C86.4848 373.401 84.7624 375.966 83.4519 378.736C82.1413 381.47 81.486 384.353 81.486 387.386C81.486 390.007 82.1039 392.01 83.3395 393.396C84.5752 394.744 86.2601 395.418 88.3945 395.418C89.5178 395.418 90.6785 395.212 91.8767 394.8C93.1124 394.388 94.2732 393.92 95.359 393.396C96.4824 392.834 97.4559 392.347 98.2797 391.935C99.1409 391.523 99.7774 391.318 100.189 391.318Z" fill="black"/>
<path d="M106.766 400.81C106.166 400.81 105.68 400.604 105.305 400.192C104.931 399.78 104.744 399.05 104.744 398.001C104.744 397.215 104.987 395.942 105.474 394.182C105.998 392.385 106.691 390.288 107.552 387.891C108.451 385.495 109.443 382.968 110.529 380.309C111.652 377.613 112.813 374.936 114.011 372.277C115.209 369.619 116.389 367.166 117.549 364.92C118.71 362.635 119.777 360.707 120.751 359.134C121.724 357.562 122.548 356.532 123.222 356.045C124.008 355.484 124.739 355.203 125.413 355.203C125.787 355.203 126.162 355.24 126.536 355.315C126.91 355.39 127.229 355.521 127.491 355.708C128.165 356.12 128.745 357.038 129.232 358.46C129.756 359.846 130.205 361.55 130.58 363.572C130.954 365.556 131.254 367.69 131.479 369.974C131.741 372.221 131.965 374.449 132.153 376.658C133.276 376.508 134.212 376.396 134.961 376.321C135.71 376.246 136.253 376.209 136.59 376.209C137.863 376.209 138.668 376.377 139.005 376.714C139.342 377.051 139.529 377.445 139.566 377.894C139.641 378.568 139.454 379.167 139.005 379.691C138.555 380.215 137.919 380.609 137.095 380.871C136.833 380.946 136.271 381.077 135.41 381.264C134.586 381.414 133.594 381.601 132.433 381.826C132.471 382.949 132.49 383.997 132.49 384.971C132.527 385.907 132.546 386.712 132.546 387.386C132.546 390.793 132.34 393.358 131.928 395.081C131.516 396.766 131.011 397.908 130.411 398.507C129.812 399.106 129.232 399.405 128.67 399.405C127.996 399.405 127.528 399.218 127.266 398.844C127.004 398.432 126.873 397.852 126.873 397.103V393.115C126.873 391.729 126.854 390.157 126.817 388.397C126.817 386.6 126.798 384.709 126.761 382.724C124.551 383.099 122.305 383.454 120.021 383.791C117.774 384.128 115.827 384.428 114.179 384.69C113.356 386.824 112.644 388.753 112.045 390.475C111.446 392.16 111.034 393.452 110.809 394.351C110.248 396.223 109.742 397.627 109.293 398.563C108.844 399.462 108.413 400.061 108.001 400.36C107.627 400.66 107.215 400.81 106.766 400.81ZM116.089 379.691C118.036 379.242 119.89 378.83 121.65 378.456C123.447 378.081 125.094 377.763 126.592 377.501C126.48 374.131 126.274 370.911 125.974 367.84C125.712 364.732 125.319 362.28 124.795 360.482C124.083 361.718 123.241 363.366 122.267 365.425C121.294 367.484 120.264 369.769 119.178 372.277C118.13 374.749 117.1 377.22 116.089 379.691Z" fill="black"/>
<path d="M164.76 403C163.937 403 163.244 402.682 162.682 402.045C162.158 401.409 161.896 400.36 161.896 398.9C161.896 398.413 161.952 397.889 162.064 397.327C162.177 396.728 162.383 396.129 162.682 395.53C160.81 390.887 159.237 386.375 157.964 381.994C156.691 377.613 155.605 373.026 154.707 368.233C153.508 370.705 152.366 373.27 151.281 375.928C150.232 378.549 149.24 381.114 148.304 383.623C147.368 386.132 146.525 388.472 145.776 390.644C145.027 392.815 144.372 394.688 143.811 396.26C143.211 398.132 142.612 399.387 142.013 400.023C141.414 400.697 140.796 401.034 140.16 401.034C139.299 401.034 138.643 400.828 138.194 400.416C137.782 400.005 137.576 399.274 137.576 398.226C137.576 397.44 137.782 396.223 138.194 394.575C138.606 392.928 139.167 391.018 139.879 388.846C140.628 386.675 141.47 384.39 142.406 381.994C143.342 379.598 144.335 377.257 145.383 374.973C146.469 372.689 147.555 370.63 148.641 368.795C149.727 366.923 150.756 365.444 151.73 364.358C152.741 363.235 153.658 362.673 154.482 362.673C155.343 362.673 156.073 362.841 156.673 363.178C157.309 363.515 158.002 364.395 158.751 365.818C159.237 366.792 159.799 368.215 160.436 370.087C161.072 371.922 161.709 374 162.345 376.321C162.982 378.605 163.6 380.964 164.199 383.398C164.798 385.795 165.322 388.022 165.771 390.082C167.269 383.155 168.58 377.089 169.703 371.884C170.826 366.642 171.688 362.542 172.287 359.584C172.923 356.626 173.26 355.072 173.298 354.922C173.522 353.948 173.766 353.349 174.028 353.125C174.29 352.9 174.664 352.788 175.151 352.788C175.825 352.788 176.48 353.069 177.117 353.63C177.791 354.154 178.128 354.885 178.128 355.821C178.128 356.27 178.016 357.3 177.791 358.91C177.604 360.52 177.304 362.542 176.892 364.976C176.518 367.372 176.031 370.049 175.432 373.007C174.833 375.928 174.14 378.98 173.354 382.163C172.567 385.308 171.688 388.434 170.714 391.542C169.778 394.613 168.748 397.515 167.625 400.248C167.213 401.296 166.726 402.008 166.165 402.382C165.64 402.794 165.172 403 164.76 403Z" fill="black"/>
<path d="M223.929 400.023C223.255 400.023 222.675 399.724 222.188 399.125C221.739 398.526 221.514 397.477 221.514 395.979C221.514 395.118 221.682 394.107 222.019 392.946C222.768 390.587 223.536 388.06 224.322 385.364C225.146 382.668 225.914 379.916 226.625 377.108C227.374 374.299 227.973 371.585 228.422 368.964C228.872 366.305 229.096 363.871 229.096 361.662C229.096 360.913 229.059 360.183 228.984 359.471C228.947 358.76 228.853 358.086 228.703 357.449C224.921 361.044 221.42 365.931 218.2 372.109C215.017 378.25 212.115 385.401 209.494 393.564C209.045 394.8 208.483 395.661 207.809 396.148C207.135 396.635 206.499 396.878 205.9 396.878C205.376 396.878 204.87 396.672 204.383 396.26C203.897 395.811 203.653 395.137 203.653 394.238C203.653 393.639 203.803 392.797 204.102 391.711C204.402 390.587 204.926 389.558 205.675 388.622C206.087 386.15 206.424 383.529 206.686 380.758C206.986 377.987 207.135 375.423 207.135 373.064C207.135 371.978 207.079 370.967 206.967 370.031C206.892 369.057 206.761 368.215 206.574 367.503C204.627 369.563 202.811 372.146 201.126 375.254C199.478 378.324 198.018 381.638 196.745 385.195C195.472 388.715 194.404 392.16 193.543 395.53C192.869 397.964 191.783 399.181 190.286 399.181C189.687 399.181 189.181 398.863 188.769 398.226C188.395 397.589 188.208 396.635 188.208 395.362C188.208 394.126 188.507 392.46 189.106 390.363C189.705 388.266 190.51 385.963 191.521 383.454C192.57 380.946 193.73 378.456 195.004 375.984C196.314 373.476 197.662 371.191 199.048 369.132C200.47 367.035 201.856 365.35 203.204 364.077C204.552 362.804 205.769 362.167 206.855 362.167C207.566 362.167 208.203 362.298 208.764 362.561C209.326 362.823 209.813 363.366 210.225 364.189C210.636 364.976 210.936 366.193 211.123 367.84C211.348 369.45 211.46 371.603 211.46 374.299C211.46 374.786 211.46 375.348 211.46 375.984C212.546 372.989 213.8 370.087 215.223 367.279C216.684 364.433 218.219 361.887 219.829 359.64C221.439 357.393 223.049 355.615 224.659 354.304C226.269 352.994 227.786 352.338 229.209 352.338C230.819 352.338 232.129 353.218 233.14 354.978C234.151 356.701 234.657 359.415 234.657 363.122C234.657 366.642 234.376 370.068 233.814 373.401C233.253 376.733 232.541 379.878 231.68 382.836C230.856 385.795 229.995 388.491 229.096 390.924C228.235 393.321 227.486 395.38 226.85 397.103C226.438 398.151 226.007 398.9 225.558 399.349C225.109 399.799 224.566 400.023 223.929 400.023Z" fill="black"/>
<path d="M246.683 399.742C245.747 399.742 244.755 399.462 243.706 398.9C242.658 398.338 241.685 397.421 240.786 396.148C239.925 394.875 239.213 393.19 238.652 391.093C238.09 388.996 237.809 386.412 237.809 383.342C237.809 380.908 238.109 378.437 238.708 375.928C239.344 373.382 240.318 370.985 241.628 368.739C242.976 366.455 244.699 364.489 246.796 362.841C248.93 361.156 251.514 359.996 254.547 359.359C255.857 359.06 257.336 358.779 258.984 358.517C260.669 358.217 262.372 357.955 264.095 357.73C265.855 357.468 267.502 357.262 269.037 357.112C270.61 356.963 271.939 356.888 273.025 356.888C274.785 356.888 276.039 357.206 276.788 357.843C277.575 358.442 277.968 359.022 277.968 359.584C277.968 359.958 277.818 360.314 277.518 360.651C277.219 360.95 276.638 361.138 275.777 361.213C275.44 361.25 274.729 361.344 273.643 361.493C272.557 361.606 271.247 361.774 269.711 361.999C268.176 362.224 266.566 362.467 264.881 362.729C263.234 362.954 261.623 363.197 260.051 363.459C258.516 363.684 257.186 363.89 256.063 364.077C252.955 364.676 250.503 365.706 248.705 367.166C246.908 368.627 245.597 370.349 244.774 372.333C243.95 374.318 243.426 376.359 243.201 378.456C244.699 378.119 246.328 377.763 248.087 377.388C249.885 377.014 251.607 376.677 253.255 376.377C254.902 376.04 256.325 375.778 257.523 375.591C258.759 375.404 259.583 375.31 259.995 375.31C260.781 375.31 261.268 375.479 261.455 375.816C261.68 376.153 261.792 376.583 261.792 377.108C261.792 378.119 260.144 379.242 256.849 380.478C253.592 381.713 248.967 382.762 242.976 383.623C242.976 384.896 242.995 386.206 243.032 387.554C243.107 388.865 243.22 390.082 243.369 391.205C243.519 392.329 243.706 393.227 243.931 393.901C244.156 394.575 244.455 394.912 244.83 394.912C245.691 394.912 246.814 394.65 248.2 394.126C249.623 393.602 251.102 392.965 252.637 392.216C254.172 391.467 255.576 390.737 256.849 390.026C258.16 389.314 259.115 388.753 259.714 388.341C260.425 387.891 261.193 387.405 262.017 386.88C262.84 386.356 263.458 386.094 263.87 386.094C264.394 386.094 264.656 386.394 264.656 386.993C264.656 387.33 264.357 387.985 263.758 388.959C263.196 389.932 262.372 391.037 261.286 392.272C260.201 393.471 258.909 394.65 257.411 395.811C255.951 396.934 254.303 397.87 252.468 398.619C250.671 399.368 248.743 399.742 246.683 399.742Z" fill="black"/>
</svg>
