<?xml version="1.0" encoding="UTF-8"?>
<svg id="Capa_2" xmlns="http://www.w3.org/2000/svg" viewBox="0 0 98.462 110.769">
  <defs>
    <style>
      .cls-1, .cls-2 {
        fill: #fff;
      }

      .cls-3 {
        letter-spacing: 0em;
      }

      .cls-2 {
        font-family: Inter-SemiBold, Inter;
        font-size: 9.231px;
        font-variation-settings: 'opsz' 14, 'wght' 600;
        font-weight: 600;
      }

      .cls-4 {
        letter-spacing: .01em;
      }
    </style>
  </defs>
  <g id="Capa_1-2" data-name="Capa_1">
    <g>
      <path d="M67.692,6.154h0c0-3.399-2.755-6.154-6.154-6.154H6.154C2.755,0,0,2.755,0,6.154v98.462c0,3.399,2.755,6.154,6.154,6.154h86.154c3.399,0,6.154-2.755,6.154-6.154V18.462c0-3.399-2.755-6.154-6.154-6.154h-18.462c-3.399,0-6.154-2.755-6.154-6.154Z"/>
      <rect class="cls-1" x="9.231" y="21.539" width="80" height="80" rx="2.857" ry="2.857"/>
      <g>
        <path d="M38.169,28.644h-21.85v21.85h21.85v-21.85ZM33.022,45.347h-11.556v-11.59h11.556v11.59Z"/>
        <path d="M29.818,36.995h-5.147v5.147h5.147v-5.147Z"/>
        <path d="M82.074,28.644h-21.85v21.85h21.85v-21.85ZM76.995,45.347h-11.59v-11.59h11.59v11.59Z"/>
        <path d="M73.757,36.995h-5.147v5.147h5.147v-5.147Z"/>
        <path d="M38.169,72.583h-21.85v21.85h21.85v-21.85ZM33.022,89.286h-11.556v-11.556h11.556v11.556Z"/>
        <path d="M29.818,80.934h-5.147v5.147h5.147v-5.147Z"/>
        <path d="M26.614,53.937h-5.147v5.147h5.147v-5.147Z"/>
        <path d="M31.624,64.231v5.113h5.113v-5.113h-5.045v-5.147h-5.113v5.147h5.045Z"/>
        <path d="M57.463,38.529h-5.147v5.147h5.147v-5.147Z"/>
        <path d="M47.168,33.757h-5.147v9.885h5.147v-9.885Z"/>
        <path d="M52.316,28.644h-5.147v5.147h5.147v-5.147Z"/>
        <path d="M52.316,43.677h-5.147v5.113h-5.147v5.147h10.294v-10.26Z"/>
        <path d="M47.168,69.345v5.045h5.147v5.011h10.26v-5.147h-10.26v-4.977h-5.147v-10.192h-5.147v10.26h5.147Z"/>
        <path d="M57.463,53.937h-5.147v10.294h5.147v-10.294Z"/>
        <path d="M67.723,69.276h14.385v-10.294h-5.113v-5.011h-9.374v5.147h-5.011v5.147h5.147v5.011h-.034ZM67.723,59.084h9.272v5.011h-9.238l-.034-5.011Z"/>
        <path d="M82.142,74.253h-5.147v10.294h5.147v-10.294Z"/>
        <path d="M62.576,64.231h-5.147v5.147h5.147v-5.147Z"/>
        <path d="M67.723,79.4h-5.147v5.147h5.147v-5.147Z"/>
        <path d="M72.871,74.253h-5.147v5.147h5.147v-5.147Z"/>
        <path d="M72.871,94.433v-4.806h4.125v-5.113h-9.272v9.92h5.147Z"/>
        <path d="M47.168,74.39h-5.147v9.783h5.147v-9.783Z"/>
        <path d="M52.316,94.433v-5.147h5.011v5.147h5.147v-5.147h-5.045v-5.147h-10.26v10.294h5.147Z"/>
        <path d="M41.987,53.937h-10.294v5.147h10.294v-5.147Z"/>
      </g>
      <g id="qr-frame-text">
        <text class="cls-2" transform="translate(8.671 13.452)"><tspan x="0" y="0">S</tspan><tspan class="cls-4" x="6.003" y="0">c</tspan><tspan class="cls-3" x="11.471" y="0">an Me!</tspan></text>
      </g>
    </g>
  </g>
</svg>