<?xml version="1.0" encoding="UTF-8"?>
<svg id="Capa_2" xmlns="http://www.w3.org/2000/svg" viewBox="0 0 330 402.188">
  <defs>
    <style>
      .frame_11_text {
        fill: #fff;
        font-family: Inter-SemiBold, Inter;
        font-size:  30px;
        font-variation-settings: 'opsz' 14, 'wght' 600;
        font-weight: 600;
      }

      .cls-2 {
        stroke: #fff;
        stroke-linecap: round;
        stroke-linejoin: round;
        stroke-width: 1.745px;
      }

      .cls-3 {
        letter-spacing: .01em;
      }
    </style>
  </defs>
  <g id="Capa_1-2" data-name="Capa_1">
    <g>
      <path fill='currentColor' d="M297.431,0H32.57C14.582,0,0,14.845,0,33.156v335.875c0,18.312,14.582,33.156,32.57,33.156h199.722c17.988,0,32.569-14.845,32.569-33.156h0c0-18.312,14.582-33.157,32.57-33.157h0c17.988,0,32.569-14.844,32.569-33.156V33.156c0-18.312-14.582-33.156-32.569-33.156ZM309.018,299.209c0,7.132-5.781,12.913-12.913,12.913H33.896c-7.132,0-12.913-5.781-12.913-12.913V37.001c0-7.132,5.781-12.913,12.913-12.913h262.208c7.132,0,12.913,5.781,12.913,12.913v262.208Z"/>
      <text id="qr-frame-text" class="frame_11_text" x='64' y='372'>Scan Me!</text>
      <circle cx="299.289" cy="372.514" r="26.724" fill='currentColor'/>
      <line class="cls-2" x1="313.318" y1="372.514" x2="285.26" y2="372.514"/>
      <g>
        <polyline class="cls-2" points="288.195 367.214 288.195 360.807 294.602 360.807"/>
        <polyline class="cls-2" points="310.383 367.214 310.383 360.807 303.976 360.807"/>
        <polyline class="cls-2" points="310.383 377.813 310.383 384.22 303.976 384.22"/>
        <polyline class="cls-2" points="288.195 377.813 288.195 384.22 294.602 384.22"/>
      </g>
    </g>
  </g>
</svg>