<?xml version="1.0" encoding="UTF-8"?>
<svg id="Capa_2" xmlns="http://www.w3.org/2000/svg" viewBox="0 0 330 374">
  <defs>
    <style>
      .frame-14-text {
        fill: #fff;
        font-family: Inter-SemiBold, Inter;
        font-size: 30px;
        font-variation-settings: 'opsz' 14, 'wght' 600;
        font-weight: 600;
      }

      .cls-3 {
        letter-spacing: .01em;
      }
    </style>
  </defs>
  <g id="Capa_1-2" data-name="Capa_1">
    <g>
      <path fill='currentColor' class="cls-1" d="M330,14.426v-6.852c-4.183,0-7.574-3.391-7.574-7.574h-6.852c0,4.183-3.391,7.574-7.574,7.574s-7.574-3.391-7.574-7.574h-6.852c0,4.183-3.391,7.574-7.574,7.574s-7.574-3.391-7.574-7.574h-6.852c0,4.183-3.391,7.574-7.574,7.574s-7.574-3.391-7.574-7.574h-6.852c0,4.183-3.391,7.574-7.573,7.574s-7.574-3.391-7.574-7.574h-6.852c0,4.183-3.391,7.574-7.573,7.574s-7.574-3.391-7.574-7.574h-6.852c0,4.183-3.391,7.574-7.574,7.574s-7.574-3.391-7.574-7.574h-6.852c0,4.183-3.391,7.574-7.574,7.574s-7.573-3.391-7.573-7.574h-6.853c0,4.183-3.391,7.574-7.573,7.574s-7.573-3.391-7.573-7.574h-6.852c0,4.183-3.391,7.574-7.574,7.574s-7.573-3.391-7.573-7.574h-6.852c0,4.183-3.391,7.574-7.574,7.574s-7.573-3.391-7.573-7.574h-6.852c0,4.183-3.391,7.574-7.574,7.574s-7.573-3.391-7.573-7.574h-6.852c0,4.183-3.391,7.574-7.574,7.574s-7.573-3.391-7.573-7.574h-6.852c0,4.183-3.391,7.574-7.573,7.574s-7.574-3.391-7.574-7.574h-6.852c0,4.183-3.391,7.574-7.573,7.574s-7.574-3.391-7.574-7.574h-6.852c0,4.183-3.391,7.574-7.573,7.574v6.852c4.183,0,7.573,3.391,7.573,7.574s-3.391,7.574-7.573,7.574v6.853c4.183,0,7.573,3.391,7.573,7.574s-3.391,7.574-7.573,7.574v6.853c4.183,0,7.573,3.391,7.573,7.574s-3.391,7.574-7.573,7.574v6.853c4.183,0,7.573,3.391,7.573,7.574s-3.391,7.574-7.573,7.574v6.853c4.183,0,7.573,3.391,7.573,7.574s-3.391,7.574-7.573,7.574v6.853c4.183,0,7.573,3.391,7.573,7.574s-3.391,7.574-7.573,7.574v6.852c4.183,0,7.573,3.391,7.573,7.574s-3.391,7.574-7.573,7.574v6.853c4.183,0,7.573,3.391,7.573,7.574s-3.391,7.574-7.573,7.574v6.853c4.183,0,7.573,3.391,7.573,7.574s-3.391,7.574-7.573,7.574v6.853c4.183,0,7.573,3.391,7.573,7.574s-3.391,7.574-7.573,7.574v6.852c4.183,0,7.573,3.391,7.573,7.574s-3.391,7.574-7.573,7.574v6.852c4.183,0,7.573,3.391,7.573,7.574s-3.391,7.573-7.573,7.573v6.853c4.183,0,7.573,3.391,7.573,7.574s-3.391,7.574-7.573,7.574v6.852c4.183,0,7.573,3.391,7.573,7.574s-3.391,7.574-7.573,7.574v6.852c4.183,0,7.573,3.391,7.573,7.574s-3.391,7.574-7.573,7.574v6.852c4.183,0,7.573,3.391,7.573,7.574s-3.391,7.574-7.573,7.574v6.852c4.183,0,7.573,3.391,7.573,7.574h6.852c0-4.183,3.391-7.574,7.574-7.574s7.573,3.391,7.573,7.574h6.852c0-4.183,3.391-7.574,7.574-7.574s7.573,3.391,7.573,7.574h6.852c0-4.183,3.391-7.574,7.573-7.574s7.574,3.391,7.574,7.574h6.852c0-4.183,3.391-7.574,7.573-7.574s7.574,3.391,7.574,7.574h6.852c0-4.183,3.391-7.574,7.573-7.574s7.574,3.391,7.574,7.574h6.852c0-4.183,3.391-7.574,7.573-7.574s7.574,3.391,7.574,7.574h6.852c0-4.183,3.391-7.574,7.573-7.574s7.573,3.391,7.573,7.574h6.853c0-4.183,3.391-7.574,7.573-7.574s7.574,3.391,7.574,7.574h6.852c0-4.183,3.391-7.574,7.574-7.574s7.574,3.391,7.574,7.574h6.852c0-4.183,3.391-7.574,7.574-7.574s7.573,3.391,7.573,7.574h6.852c0-4.183,3.391-7.574,7.574-7.574s7.573,3.391,7.573,7.574h6.852c0-4.183,3.391-7.574,7.574-7.574s7.574,3.391,7.574,7.574h6.852c0-4.183,3.391-7.574,7.574-7.574s7.574,3.391,7.574,7.574h6.852c0-4.183,3.391-7.574,7.574-7.574s7.574,3.391,7.574,7.574h6.852c0-4.183,3.391-7.574,7.574-7.574v-6.852c-4.183,0-7.574-3.391-7.574-7.574s3.391-7.574,7.574-7.574v-6.852c-4.183,0-7.574-3.391-7.574-7.574s3.391-7.574,7.574-7.574v-6.852c-4.183,0-7.574-3.391-7.574-7.574s3.391-7.574,7.574-7.574v-6.852c-4.183,0-7.574-3.391-7.574-7.574s3.391-7.574,7.574-7.574v-6.853c-4.183,0-7.574-3.391-7.574-7.573s3.391-7.574,7.574-7.574v-6.852c-4.183,0-7.574-3.391-7.574-7.574s3.391-7.574,7.574-7.574v-6.852c-4.183,0-7.574-3.391-7.574-7.574s3.391-7.574,7.574-7.574v-6.853c-4.183,0-7.574-3.391-7.574-7.574s3.391-7.574,7.574-7.574v-6.853c-4.183,0-7.574-3.391-7.574-7.574s3.391-7.574,7.574-7.574v-6.853c-4.183,0-7.574-3.391-7.574-7.574s3.391-7.574,7.574-7.574v-6.852c-4.183,0-7.574-3.391-7.574-7.574s3.391-7.574,7.574-7.574v-6.853c-4.183,0-7.574-3.391-7.574-7.574s3.391-7.574,7.574-7.574v-6.853c-4.183,0-7.574-3.391-7.574-7.574s3.391-7.574,7.574-7.574v-6.853c-4.183,0-7.574-3.391-7.574-7.574s3.391-7.574,7.574-7.574v-6.853c-4.183,0-7.574-3.391-7.574-7.574s3.391-7.574,7.574-7.574v-6.853c-4.183,0-7.574-3.391-7.574-7.574s3.391-7.574,7.574-7.574ZM288.75,288.989H41.25V41.489h247.5v247.5Z"/>
      <path fill='currentColor' d="M15.469,15.469v343.062h299.062V15.469H15.469ZM288.75,288.989H41.25V41.489h247.5v247.5Z"/>
      <text id="qr-frame-text" class="frame_14_text" x='97' y='334'>Scan Me!</text>
    </g>
  </g>
</svg>