<svg width="320" height="418" viewBox="0 0 320 418" fill="none" xmlns="http://www.w3.org/2000/svg">
<path d="M165.043 119C173.626 119 180.584 125.958 180.584 134.541V284.043C180.584 292.626 173.626 299.584 165.043 299.584H15.541C6.95804 299.584 0 292.626 0 284.043V134.541C0 125.958 6.95804 119 15.541 119H165.043ZM18.4844 128.953C13.7727 128.953 9.95312 132.774 9.95312 137.485V281.099C9.95312 285.81 13.7727 289.631 18.4844 289.631H162.099C166.81 289.631 170.63 285.81 170.63 281.099V137.431C170.63 132.749 166.835 128.953 162.153 128.953H18.4844Z" fill="currentColor"/>
<path d="M180.132 145.843H308.697C314.94 145.843 320 150.904 320 157.146V198.205C320 204.447 314.94 209.507 308.697 209.507H180.132V145.843Z" fill="currentColor"/>
<path d="M204.615 203.543C200.047 203.543 196.749 202.406 194.721 200.132C192.712 197.857 191.708 194.237 191.708 189.271V184.381H201.601V190.636C201.601 191.792 201.772 192.702 202.113 193.365C202.473 194.01 203.089 194.332 203.961 194.332C204.871 194.332 205.496 194.066 205.838 193.536C206.198 193.005 206.378 192.133 206.378 190.92C206.378 189.385 206.226 188.106 205.923 187.082C205.62 186.04 205.089 185.054 204.331 184.125C203.592 183.177 202.559 182.078 201.232 180.827L196.74 176.563C193.385 173.397 191.708 169.777 191.708 165.702C191.708 161.437 192.693 158.187 194.664 155.95C196.654 153.714 199.526 152.595 203.279 152.595C207.866 152.595 211.116 153.818 213.031 156.263C214.964 158.708 215.93 162.423 215.93 167.408H205.752V163.968C205.752 163.285 205.553 162.755 205.155 162.376C204.776 161.997 204.255 161.807 203.592 161.807C202.796 161.807 202.208 162.034 201.829 162.489C201.469 162.925 201.289 163.494 201.289 164.195C201.289 164.897 201.478 165.655 201.857 166.47C202.236 167.285 202.985 168.223 204.103 169.284L209.875 174.828C211.031 175.928 212.092 177.093 213.059 178.325C214.026 179.538 214.803 180.96 215.39 182.59C215.978 184.201 216.272 186.172 216.272 188.504C216.272 193.204 215.4 196.891 213.656 199.563C211.931 202.217 208.918 203.543 204.615 203.543Z" fill="white"/>
<path d="M233.612 203.543C229.992 203.543 227.073 202.416 224.855 200.16C222.657 197.905 221.558 194.749 221.558 190.693V167.607C221.558 162.755 222.515 159.04 224.429 156.462C226.362 153.884 229.499 152.595 233.84 152.595C236.209 152.595 238.313 153.031 240.151 153.903C242.009 154.775 243.468 156.083 244.53 157.827C245.591 159.552 246.122 161.731 246.122 164.366V173.009H236.171V165.617C236.171 164.119 235.981 163.115 235.602 162.603C235.223 162.072 234.636 161.807 233.84 161.807C232.911 161.807 232.285 162.148 231.963 162.831C231.641 163.494 231.48 164.385 231.48 165.503V190.551C231.48 191.934 231.679 192.91 232.077 193.479C232.494 194.048 233.081 194.332 233.84 194.332C234.693 194.332 235.29 193.981 235.631 193.28C235.991 192.579 236.171 191.669 236.171 190.551V181.538H246.235V191.005C246.235 195.403 245.127 198.596 242.909 200.587C240.691 202.558 237.592 203.543 233.612 203.543Z" fill="white"/>
<path d="M250.555 203.089L255.388 153.05H272.361L277.109 203.089H267.641L266.931 195.014H260.903L260.278 203.089H250.555ZM261.614 187.025H266.163L263.974 161.58H263.519L261.614 187.025Z" fill="white"/>
<path d="M282.508 203.089V153.05H292.8L297.406 177.017V153.05H307.073V203.089H297.292L292.289 178.069V203.089H282.508Z" fill="white"/>
<path d="M180.132 209.507H259.503C265.745 209.507 270.805 214.568 270.805 220.81V261.869C270.805 268.111 265.745 273.171 259.503 273.171H180.132V209.507Z" fill="currentColor"/>
<path d="M191.708 267.021V216.983H206.946L211.154 247.489L215.333 216.983H230.714V267.021H221.56V230.971L215.817 267.021H206.833L200.748 230.971V267.021H191.708Z" fill="white"/>
<path d="M237.479 267.021V216.983H257.494V226.65H247.657V236.401H257.096V245.812H247.657V257.27H258.148V267.021H237.479Z" fill="white"/>
</svg>
